<svg width="62" height="96" viewBox="0 0 62 96" fill="none" xmlns="http://www.w3.org/2000/svg">
<g id="Group 84">
<path id="Vector" d="M15.7811 95.831C24.1819 95.831 31 88.6883 31 79.8874V63.9438H15.7811C7.38023 63.9438 0.562164 71.0866 0.562164 79.8874C0.562164 88.6883 7.38023 95.831 15.7811 95.831Z" fill="#0ACF83"/>
<path id="Vector_2" d="M0.562164 48C0.562164 39.1991 7.38023 32.0564 15.7811 32.0564H31V63.9436H15.7811C7.38023 63.9436 0.562164 56.8008 0.562164 48Z" fill="#A259FF"/>
<path id="Vector_3" d="M0.562164 16.1128C0.562164 7.31192 7.38023 0.169189 15.7811 0.169189H31V32.0564H15.7811C7.38023 32.0564 0.562164 24.9137 0.562164 16.1128Z" fill="#F24E1E"/>
<path id="Vector_4" d="M31 0.169189H46.2189C54.6197 0.169189 61.4378 7.31192 61.4378 16.1128C61.4378 24.9137 54.6197 32.0564 46.2189 32.0564H31V0.169189Z" fill="#FF7262"/>
<path id="Vector_5" d="M61.4378 48C61.4378 56.8008 54.6197 63.9436 46.2189 63.9436C37.818 63.9436 31 56.8008 31 48C31 39.1991 37.818 32.0564 46.2189 32.0564C54.6197 32.0564 61.4378 39.1991 61.4378 48Z" fill="#1ABCFE"/>
</g>
</svg>
