<svg width="27" height="40" viewBox="0 0 27 40" fill="none" xmlns="http://www.w3.org/2000/svg">
<path fill-rule="evenodd" clip-rule="evenodd" d="M13.3333 19.9999C13.3333 16.3181 16.3182 13.3333 20 13.3333C23.6818 13.3333 26.6667 16.3181 26.6667 19.9999C26.6667 23.6818 23.6818 26.6666 20 26.6666C16.3182 26.6666 13.3333 23.6818 13.3333 19.9999Z" fill="#1ABCFE"/>
<path fill-rule="evenodd" clip-rule="evenodd" d="M0 33.3334C0 29.6516 2.98477 26.6667 6.66667 26.6667H13.3333V33.3334C13.3333 37.0152 10.3485 40.0001 6.66667 40.0001C2.98477 40.0001 0 37.0152 0 33.3334Z" fill="#0ACF83"/>
<path fill-rule="evenodd" clip-rule="evenodd" d="M13.3333 0V13.3333H20C23.6818 13.3333 26.6667 10.3485 26.6667 6.66667C26.6667 2.98477 23.6818 0 20 0H13.3333Z" fill="#FF7262"/>
<path fill-rule="evenodd" clip-rule="evenodd" d="M0 6.66667C0 10.3485 2.98477 13.3333 6.66667 13.3333H13.3333V0H6.66667C2.98477 0 0 2.98477 0 6.66667Z" fill="#F24E1E"/>
<path fill-rule="evenodd" clip-rule="evenodd" d="M0 19.9999C0 23.6818 2.98477 26.6666 6.66667 26.6666H13.3333V13.3333H6.66667C2.98477 13.3333 0 16.3181 0 19.9999Z" fill="#A259FF"/>
</svg>
