<svg width="92" height="94" viewBox="0 0 92 94" fill="none" xmlns="http://www.w3.org/2000/svg">
<g id="Group 57">
<path id="Vector" d="M46.0002 0.485107C20.8609 0.485107 0.475571 21.8374 0.475571 48.1775C0.475571 69.2497 13.5197 87.1267 31.6082 93.4331C33.8833 93.8745 34.7187 92.3985 34.7187 91.1387C34.7187 90.0016 34.6762 86.2443 34.657 82.2593C21.9916 85.1443 19.3192 76.6322 19.3192 76.6322C17.2483 71.1195 14.2645 69.654 14.2645 69.654C10.1343 66.6938 14.5759 66.7544 14.5759 66.7544C19.1474 67.0911 21.5546 71.6694 21.5546 71.6694C25.6149 78.9606 32.2044 76.8525 34.8023 75.6342C35.2107 72.5514 36.3908 70.4477 37.6925 69.2568C27.5811 68.0505 16.9513 63.9611 16.9513 45.6868C16.9513 40.4801 18.7297 36.2254 21.6421 32.8855C21.1694 31.6841 19.6112 26.8335 22.083 20.2642C22.083 20.2642 25.9059 18.9823 34.6056 25.1529C38.2367 24.0959 42.1313 23.5662 46.0002 23.5483C49.8691 23.5662 53.7666 24.0959 57.4048 25.1529C66.0941 18.9823 69.9116 20.2642 69.9116 20.2642C72.3895 26.8335 70.8307 31.6841 70.3579 32.8855C73.2767 36.2254 75.043 40.4797 75.043 45.6868C75.043 64.0045 64.3932 68.0381 54.2561 69.2186C55.8888 70.6987 57.3438 73.6013 57.3438 78.0505C57.3438 84.4317 57.2909 89.5677 57.2909 91.1387C57.2909 92.4078 58.1103 93.895 60.4182 93.4267C78.4967 87.1133 91.5244 69.2426 91.5244 48.1775C91.5244 21.8374 71.142 0.485107 46.0002 0.485107Z" fill="black"/>
<path id="Vector_2" d="M17.526 68.4242C17.426 68.661 17.0697 68.7321 16.7459 68.5697C16.4156 68.4141 16.2299 68.0909 16.337 67.853C16.4352 67.6092 16.7916 67.5411 17.1211 67.7049C17.4521 67.8602 17.6406 68.1863 17.526 68.4242ZM19.7654 70.5174C19.5483 70.7283 19.1238 70.6303 18.8356 70.2971C18.5379 69.9645 18.4822 69.5202 18.7025 69.3058C18.9263 69.0952 19.338 69.1936 19.6365 69.5265C19.9342 69.8628 19.9921 70.3045 19.765 70.5177L19.7654 70.5174ZM21.3017 73.1955C21.0225 73.3986 20.5662 73.2082 20.2845 72.7841C20.0057 72.3603 20.0057 71.8516 20.2906 71.6477C20.5734 71.4439 21.0225 71.6272 21.3081 72.048C21.5866 72.4792 21.5866 72.9879 21.3014 73.1959L21.3017 73.1955ZM23.8996 76.2975C23.65 76.5855 23.1187 76.5084 22.7295 76.1149C22.3318 75.7304 22.2207 75.1847 22.471 74.8963C22.7235 74.6075 23.258 74.6887 23.65 75.0788C24.0452 75.4626 24.1659 76.0124 23.8999 76.2975H23.8996ZM27.2572 77.3448C27.1476 77.7181 26.6356 77.8879 26.12 77.7293C25.6052 77.5658 25.2681 77.1282 25.372 76.7508C25.4791 76.3749 25.9933 76.198 26.5128 76.3678C27.0269 76.5305 27.3647 76.9648 27.2575 77.3448H27.2572ZM31.079 77.7888C31.0918 78.1823 30.6544 78.5084 30.1132 78.5155C29.5687 78.5279 29.1284 78.2096 29.1227 77.8228C29.1227 77.4256 29.5501 77.1024 30.0942 77.0931C30.6355 77.0818 31.079 77.3979 31.079 77.7888ZM34.8329 77.638C34.8979 78.0218 34.5216 78.416 33.9842 78.5208C33.4558 78.6218 32.9667 78.385 32.8992 78.0046C32.8335 77.6111 33.2169 77.2172 33.7443 77.1151C34.2827 77.0171 34.7644 77.2479 34.8329 77.638Z" fill="black"/>
</g>
</svg>
