<svg width="17" height="16" viewBox="0 0 17 16" fill="none" xmlns="http://www.w3.org/2000/svg">
<path d="M8.79748 0C4.26794 0 0.594971 3.67233 0.594971 8.20251C0.594971 11.8267 2.94524 14.9013 6.20437 15.9859C6.61429 16.0618 6.76482 15.808 6.76482 15.5913C6.76482 15.3957 6.75717 14.7495 6.75369 14.0642C4.47168 14.5603 3.99016 13.0964 3.99016 13.0964C3.61704 12.1483 3.07943 11.8962 3.07943 11.8962C2.33525 11.3871 3.13553 11.3975 3.13553 11.3975C3.95922 11.4554 4.39294 12.2428 4.39294 12.2428C5.12451 13.4968 6.3118 13.1343 6.77987 12.9247C6.85347 12.3945 7.06608 12.0327 7.30063 11.8279C5.47878 11.6204 3.56352 10.9171 3.56352 7.77413C3.56352 6.87865 3.88395 6.14688 4.4087 5.57247C4.32353 5.36584 4.04279 4.5316 4.48815 3.40175C4.48815 3.40175 5.17694 3.18129 6.74443 4.24256C7.39867 4.06076 8.10039 3.96967 8.79748 3.96658C9.49457 3.96967 10.1968 4.06076 10.8523 4.24256C12.418 3.18129 13.1058 3.40175 13.1058 3.40175C13.5522 4.5316 13.2714 5.36584 13.1862 5.57247C13.7121 6.14688 14.0304 6.87858 14.0304 7.77413C14.0304 10.9245 12.1115 11.6183 10.285 11.8213C10.5792 12.0759 10.8413 12.5751 10.8413 13.3403C10.8413 14.4378 10.8318 15.3211 10.8318 15.5913C10.8318 15.8096 10.9795 16.0654 11.3953 15.9848C14.6526 14.899 16.9999 11.8254 16.9999 8.20251C16.9999 3.67233 13.3275 0 8.79748 0Z" fill="#CCCCCC"/>
<path d="M3.6672 11.6847C3.64919 11.7254 3.58499 11.7376 3.52664 11.7097C3.46713 11.6829 3.43368 11.6273 3.45298 11.5864C3.47067 11.5445 3.53487 11.5328 3.59425 11.561C3.65389 11.5876 3.68785 11.6437 3.6672 11.6847V11.6847ZM4.07069 12.0447C4.03157 12.0809 3.95509 12.0641 3.90317 12.0068C3.84952 11.9496 3.83948 11.8731 3.87917 11.8363C3.91951 11.8001 3.99368 11.817 4.04746 11.8742C4.10112 11.9321 4.11154 12.0081 4.07062 12.0447L4.07069 12.0447ZM4.3475 12.5053C4.2972 12.5402 4.21498 12.5075 4.16423 12.4345C4.11398 12.3616 4.11398 12.2741 4.16532 12.2391C4.21627 12.204 4.2972 12.2355 4.34866 12.3079C4.39884 12.3821 4.39884 12.4696 4.34744 12.5053L4.3475 12.5053ZM4.81558 13.0388C4.77061 13.0883 4.67488 13.075 4.60476 13.0074C4.5331 12.9412 4.51309 12.8474 4.55819 12.7978C4.60367 12.7481 4.69997 12.7621 4.77061 12.8292C4.84182 12.8952 4.86357 12.9897 4.81564 13.0388H4.81558ZM5.42055 13.2189C5.4008 13.2831 5.30855 13.3123 5.21565 13.285C5.12289 13.2569 5.06216 13.1816 5.08088 13.1167C5.10018 13.0521 5.19281 13.0216 5.28642 13.0509C5.37905 13.0788 5.43991 13.1535 5.42061 13.2189H5.42055ZM6.10915 13.2952C6.11146 13.3629 6.03266 13.419 5.93513 13.4202C5.83703 13.4224 5.7577 13.3676 5.75668 13.3011C5.75668 13.2328 5.83368 13.1772 5.93172 13.1756C6.02925 13.1737 6.10915 13.228 6.10915 13.2952V13.2952ZM6.78552 13.2693C6.79723 13.3353 6.72943 13.4031 6.63261 13.4211C6.5374 13.4385 6.44926 13.3978 6.4371 13.3324C6.42527 13.2647 6.49436 13.197 6.58938 13.1794C6.68639 13.1625 6.77317 13.2022 6.78552 13.2693" fill="#CCCCCC"/>
</svg>
