<svg width="36" height="40" viewBox="0 0 36 40" fill="none" xmlns="http://www.w3.org/2000/svg">
<path fill-rule="evenodd" clip-rule="evenodd" d="M21.2174 4.58386L29.4422 9.33279C29.6797 9.08154 29.9522 8.8659 30.2513 8.69255C31.957 7.71189 34.1328 8.29414 35.1236 10C36.1042 11.7059 35.522 13.8815 33.8161 14.8723C33.5192 15.0432 33.1993 15.1706 32.8662 15.2505V24.7518C33.1957 24.8319 33.5121 24.9584 33.806 25.1276C35.522 26.1184 36.1042 28.2941 35.1134 30C34.1328 31.7057 31.9469 32.288 30.241 31.3074C29.9105 31.1179 29.6128 30.8762 29.3594 30.5917L21.1845 35.3114C21.3043 35.6739 21.3651 36.0533 21.3646 36.435C21.3646 38.3962 19.7713 40 17.7998 40C15.8283 40 14.235 38.4064 14.235 36.435C14.235 36.0846 14.2853 35.7461 14.3792 35.4264L6.15653 30.6789C5.92168 30.9252 5.65302 31.1368 5.3586 31.3074C3.64259 32.288 1.46685 31.7057 0.486192 30C-0.494325 28.2941 0.0879223 26.1184 1.79364 25.1276C2.08749 24.9584 2.40392 24.8318 2.73341 24.7517V15.2505C2.40028 15.1706 2.08036 15.0432 1.78349 14.8723C0.0776318 13.8918 -0.504615 11.7059 0.476041 10C1.4567 8.29414 3.64245 7.71189 5.34831 8.69255C5.64577 8.86497 5.91693 9.07923 6.15347 9.32875L14.3807 4.57858C14.2837 4.2494 14.2347 3.90798 14.235 3.56482C14.235 1.59364 15.8283 0 17.7998 0C19.7713 0 21.3646 1.5935 21.3646 3.56482C21.3646 3.91915 21.3132 4.2611 21.2174 4.58386ZM20.3605 6.04706L28.605 10.8071C28.4737 11.266 28.436 11.7466 28.4942 12.2204C28.5525 12.6941 28.7054 13.1514 28.9439 13.5648C29.4457 14.4378 30.2633 15.0166 31.1706 15.2422V24.7553C31.1243 24.7666 31.0783 24.779 31.0325 24.792L20.2647 6.14231C20.2972 6.11116 20.3292 6.07946 20.3605 6.0472V6.04706ZM15.3372 6.1444L4.56943 24.7938C4.52287 24.7804 4.47605 24.7679 4.42898 24.7563V15.2422C5.33635 15.0166 6.15389 14.4378 6.65576 13.5648C6.89472 13.1506 7.04776 12.6924 7.10575 12.2177C7.16374 11.743 7.12548 11.2614 6.99326 10.8018L15.2354 6.04316C15.2686 6.07751 15.3026 6.1113 15.3372 6.14426V6.1444ZM18.7959 6.98919L29.5611 25.6345C29.3145 25.8698 29.1032 26.1394 28.9336 26.435C28.7644 26.7289 28.6378 27.0453 28.5578 27.3748H7.04207C6.96193 27.0453 6.83532 26.7289 6.66605 26.435C6.49584 26.1414 6.28487 25.8734 6.03944 25.6391L16.8068 6.99003C17.1296 7.08298 17.4639 7.12998 17.7998 7.12965C18.1456 7.12965 18.4798 7.0807 18.7959 6.98919ZM20.4361 34.0335L28.6271 29.3043C28.6025 29.2271 28.5806 29.1491 28.5613 29.0704H7.03748C7.02608 29.1167 7.0137 29.1626 7.00049 29.2083L15.2315 33.9607C15.5639 33.6151 15.9628 33.3403 16.4042 33.1529C16.8455 32.9655 17.3203 32.8693 17.7998 32.8702C18.2961 32.8693 18.7871 32.9724 19.2411 33.1727C19.6952 33.3731 20.1022 33.6663 20.4361 34.0335V34.0335Z" fill="#E535AB"/>
</svg>
