<svg width="82" height="92" viewBox="0 0 82 92" fill="none" xmlns="http://www.w3.org/2000/svg">
<path id="Vector" fill-rule="evenodd" clip-rule="evenodd" d="M48.7891 10.9283L67.5347 21.7321C68.0759 21.1605 68.697 20.6699 69.3787 20.2756C73.2662 18.0446 78.225 19.3692 80.4832 23.25C82.7183 27.1308 81.3913 32.0803 77.5034 34.3344C76.8268 34.7234 76.0976 35.0132 75.3384 35.1949V56.8104C76.0893 56.9925 76.8105 57.2803 77.4802 57.6653C81.3913 59.9194 82.7183 64.8692 80.4601 68.75C78.225 72.6305 73.2431 73.9551 69.3552 71.7244C68.602 71.2931 67.9235 70.7433 67.3458 70.0961L48.7143 80.8335C48.9871 81.6582 49.1257 82.5212 49.1247 83.3897C49.1247 87.8514 45.4932 91.5 41 91.5C36.5068 91.5 32.8753 87.8745 32.8753 83.3897C32.8753 82.5925 32.99 81.8224 33.204 81.0951L14.4634 70.2945C13.9281 70.8547 13.3158 71.3362 12.6448 71.7244C8.73379 73.9551 3.77497 72.6305 1.53992 68.75C-0.69481 64.8692 0.632211 59.9194 4.51978 57.6653C5.18949 57.2803 5.91067 56.9923 6.66164 56.8101V35.1949C5.90239 35.0132 5.17326 34.7234 4.49664 34.3344C0.608757 32.1037 -0.718263 27.1308 1.51679 23.25C3.75183 19.3692 8.73347 18.0446 12.6214 20.2756C13.2993 20.6678 13.9173 21.1552 14.4564 21.7229L33.2074 10.9163C32.9864 10.1674 32.8745 9.39066 32.8753 8.60997C32.8753 4.12552 36.5068 0.5 41 0.5C45.4932 0.5 49.1247 4.12521 49.1247 8.60997C49.1247 9.41607 49.0075 10.194 48.7891 10.9283ZM46.8361 14.2571L65.6264 25.0862C65.3272 26.1302 65.2414 27.2236 65.3741 28.3014C65.5068 29.3792 65.8553 30.4193 66.3988 31.36C67.5426 33.3461 69.4059 34.6628 71.4739 35.1759V56.8184C71.3684 56.844 71.2635 56.8721 71.1592 56.9019L46.6177 14.4738C46.6919 14.4029 46.7648 14.3308 46.8361 14.2574V14.2571ZM35.3873 14.4785L10.8462 56.906C10.7401 56.8754 10.6333 56.8469 10.5261 56.8206V35.1759C12.5941 34.6628 14.4574 33.3461 15.6012 31.36C16.1458 30.4175 16.4946 29.3752 16.6268 28.2952C16.759 27.2152 16.6718 26.1197 16.3704 25.0742L35.1553 14.2482C35.2311 14.3263 35.3084 14.4032 35.3873 14.4782V14.4785ZM43.2702 16.4004L67.8057 58.8184C67.2437 59.3537 66.7619 59.9671 66.3754 60.6397C65.9897 61.3082 65.7014 62.0281 65.519 62.7777H16.4817C16.299 62.0281 16.0105 61.3082 15.6247 60.6397C15.2367 59.9718 14.7559 59.3621 14.1965 58.8288L38.7368 16.4023C39.4725 16.6138 40.2344 16.7207 41 16.7199C41.7882 16.7199 42.5498 16.6086 43.2702 16.4004ZM47.0085 77.9261L65.6768 67.1672C65.6209 66.9916 65.5709 66.8141 65.5269 66.6351H16.4712C16.4452 66.7405 16.417 66.8449 16.3869 66.9489L35.1465 77.7607C35.904 76.9743 36.8132 76.3492 37.8191 75.9228C38.8251 75.4965 39.9071 75.2777 41 75.2797C42.1311 75.2778 43.2501 75.5122 44.2849 75.968C45.3198 76.4238 46.2475 77.0908 47.0085 77.9261Z" fill="#E535AB"/>
</svg>
