<svg width="92" height="96" viewBox="0 0 92 96" fill="none" xmlns="http://www.w3.org/2000/svg">
<g id="Group 103">
<path id="Vector" d="M91.5851 0.244141H0.414886V95.7558H91.5851V0.244141Z" fill="#F7DF1E"/>
<path id="Vector_2" d="M61.6581 74.8629C63.4945 78.0042 65.8838 80.3132 70.1094 80.3132C73.6593 80.3132 75.927 78.4545 75.927 75.8863C75.927 72.8087 73.5971 71.7186 69.6898 69.9282L67.548 68.9655C61.3658 66.2063 57.2588 62.7496 57.2588 55.4422C57.2588 48.7109 62.1545 43.5867 69.8055 43.5867C75.2526 43.5867 79.1686 45.5727 81.9905 50.7728L75.3192 55.2603C73.8503 52.5011 72.2657 51.4141 69.8055 51.4141C67.2962 51.4141 65.7058 53.0817 65.7058 55.2603C65.7058 57.9528 67.2976 59.0429 70.9734 60.7105L73.1152 61.6717C80.3943 64.9419 84.5042 68.2757 84.5042 75.7711C84.5042 83.8516 78.445 88.2785 70.3077 88.2785C62.3513 88.2785 57.211 84.3065 54.6959 79.1003L61.6581 74.8629ZM31.3939 75.6407C32.7398 78.1422 33.9641 80.2571 36.9076 80.2571C39.7223 80.2571 41.4979 79.1034 41.4979 74.6173V44.0991H50.065V74.7386C50.065 84.0321 44.864 88.2619 37.2722 88.2619C30.4128 88.2619 26.4404 84.543 24.4201 80.0638L31.3939 75.6407Z" fill="black"/>
</g>
</svg>
