<svg width="40" height="40" viewBox="0 0 40 40" fill="none" xmlns="http://www.w3.org/2000/svg">
<path d="M0 4C0 1.79086 1.79086 0 4 0H36C38.2091 0 40 1.79086 40 4V36C40 38.2091 38.2091 40 36 40H4C1.79086 40 0 38.2091 0 36V4Z" fill="#F7DF1E"/>
<path d="M10.5175 33.4269L10.7701 33.274C12.307 32.3439 14.1984 33.5074 15.9948 33.5074V33.5074C17.23 33.5074 18.0089 33.0242 18.0089 31.1449V20.2434C18.0089 19.2054 18.8504 18.3639 19.8884 18.3639V18.3639C20.9263 18.3639 21.7678 19.2054 21.7678 20.2434V31.198C21.7678 35.0913 19.4856 36.8635 16.1559 36.8635C13.1489 36.8635 11.4034 35.3061 10.5173 33.4266M23.8095 33.0241V33.0241C25.5119 32.0384 27.6249 32.9638 29.5387 33.4192C29.8541 33.4943 30.1981 33.5344 30.5756 33.5344C32.1333 33.5344 33.1264 32.7556 33.1264 31.6816C33.1264 30.3928 32.1061 29.9363 30.3876 29.1847L29.4481 28.7816C26.7361 27.6274 24.9372 26.1774 24.9372 23.1164C24.9372 20.2971 27.0851 18.1489 30.4416 18.1489C32.2664 18.1489 33.6998 18.6344 34.8255 19.8324C35.4547 20.502 35.1793 21.545 34.4062 22.0416V22.0416C33.5669 22.5805 32.5161 22.1634 31.6364 21.6934C31.2899 21.5082 30.8999 21.425 30.4414 21.425C29.3405 21.425 28.6423 22.1231 28.6423 23.036C28.6423 24.1636 29.3405 24.6203 30.9514 25.3185L31.8911 25.7211C35.0864 27.0906 36.8853 28.4867 36.8853 31.628C36.8853 35.0114 34.2272 36.8639 30.6561 36.8639C27.1656 36.8639 24.9101 35.1992 23.8094 33.0242" fill="black"/>
</svg>
