<svg width="92" height="100" viewBox="0 0 92 100" fill="none" xmlns="http://www.w3.org/2000/svg">
<g id="Group 101">
<path id="Vector" d="M85.6043 49.2356C85.6043 44.0952 81.4368 39.9278 76.2964 39.9278C75.9655 39.9278 75.6395 39.9455 75.3178 39.9795L88.1022 2.27319H33.7728L46.5395 39.9465C46.3511 39.9347 46.1624 39.9285 45.9737 39.9281C40.8333 39.9281 36.6658 44.0949 36.6658 49.236C36.6658 53.3911 39.3891 56.9091 43.1473 58.1059C41.1624 61.5442 38.6645 64.6413 35.8285 67.3171C31.9722 70.9549 27.5588 73.7136 22.7855 75.4132C17.1022 72.4936 14.4187 66.0008 16.84 60.308C17.1136 59.6649 17.3928 59.0133 17.6596 58.3646C21.7767 57.4037 24.8451 53.7128 24.8451 49.3026C24.8451 44.1618 20.6776 39.9947 15.5369 39.9947C10.3961 39.9947 6.22899 44.1618 6.22899 49.3026C6.22899 52.455 7.79719 55.2395 10.1948 56.9232C7.89109 62.1685 4.50454 67.6583 3.44938 74.0208C2.18483 81.6456 3.44513 89.7396 10.04 94.3107C25.3989 104.956 42.0709 87.7115 59.6492 83.3765C66.0198 81.8058 73.0129 82.0588 78.6257 78.8083C82.8406 76.367 85.6195 72.3211 86.4079 67.7791C87.1873 63.2921 86.0514 58.8245 83.4394 55.202C84.8407 53.53 85.6073 51.4172 85.6043 49.2356Z" fill="#99425B"/>
<path id="Vector_2" d="M84.1682 67.3902C83.4837 71.3337 81.0481 74.778 77.4865 76.8412C74.1662 78.7641 70.1876 79.3381 65.9748 79.9454C63.7182 80.2706 61.3846 80.6076 59.105 81.1695C53.0773 82.6559 47.2389 85.556 41.5932 88.3604C30.2941 93.9727 20.5363 98.8191 11.3354 92.4421C4.59558 87.7711 4.90667 79.1287 5.69184 74.3929C6.4196 70.005 8.38712 65.9641 10.2894 62.0563C10.6135 61.3922 10.935 60.7268 11.2539 60.0601C12.2128 60.4434 13.219 60.6959 14.2454 60.8105C12.3087 67.202 15.3544 74.1516 21.7466 77.4354L22.6218 77.885L23.5479 77.5552C28.6015 75.7552 33.2583 72.8676 37.3886 68.9704C40.0584 66.4516 42.354 63.6649 44.2407 60.6872C44.8143 60.7738 45.3936 60.8172 45.9737 60.8173C51.8408 60.8173 56.6992 56.4312 57.451 50.7664C59.8526 50.6785 62.4033 50.6778 64.8187 50.7657C65.5698 56.4312 70.4289 60.8176 76.296 60.8176C78.7493 60.8176 81.0247 60.0488 82.8994 58.7427C84.2008 61.4068 84.6866 64.4044 84.1682 67.3902ZM15.5372 42.2681C19.4163 42.2681 22.5718 45.424 22.5718 49.3031C22.5718 50.6962 22.1629 51.9955 21.461 53.0896C20.2918 54.9133 18.3041 56.1633 16.0205 56.3192C15.8607 56.3299 15.6995 56.3377 15.5372 56.3377C14.6727 56.3377 13.8446 56.18 13.079 55.8937C11.5369 55.3138 10.2456 54.214 9.42774 52.7839C8.82044 51.7244 8.50136 50.5243 8.50227 49.3031C8.50227 45.424 11.6582 42.2681 15.5372 42.2681ZM38.9394 49.2361C38.9394 45.7117 41.5447 42.7854 44.9298 42.2795C45.2707 42.2281 45.6193 42.2015 45.974 42.2015C48.2292 42.2015 50.2371 43.2698 51.5247 44.9251C51.8472 45.3379 52.1227 45.7853 52.346 46.2591C52.7833 47.1906 53.0095 48.2071 53.0086 49.2361C53.0086 49.7984 52.9406 50.3451 52.8155 50.8695C52.1299 53.7395 49.6826 55.9334 46.6837 56.2352C46.4506 56.2586 46.2139 56.2707 45.974 56.2707C44.6209 56.2718 43.2966 55.8803 42.1616 55.1436C40.2249 53.889 38.9394 51.7103 38.9394 49.2361ZM68.2998 40.8707C66.769 42.3319 65.6673 44.1842 65.1142 46.2269C62.4627 46.1291 59.8084 46.1291 57.1569 46.2269C56.5617 44.0188 55.328 42.0708 53.668 40.5911L60.9474 25.8721L68.2998 40.8707ZM36.9436 4.54729H84.931L73.5968 37.9752C73.1092 38.092 72.6297 38.2406 72.1615 38.4199L60.9651 15.5796L49.7368 38.2835C49.2474 38.1155 48.7471 37.9806 48.2395 37.8799L36.9436 4.54729ZM83.3306 49.2365C83.3306 49.9415 83.2254 50.6225 83.0316 51.2656C82.5718 52.7796 81.6169 54.0954 80.32 55.0019C79.1413 55.8291 77.736 56.2723 76.296 56.271C73.048 56.271 70.3081 54.0576 69.5024 51.0601C69.3424 50.4654 69.2614 49.8523 69.2614 49.2365C69.2614 48.2748 69.4556 47.3579 69.8064 46.5224C69.9874 46.0949 70.2103 45.6864 70.4718 45.3028C71.7377 43.4342 73.8739 42.2019 76.296 42.2019C76.5182 42.2019 76.7371 42.2132 76.9543 42.2337C80.5258 42.5665 83.331 45.5792 83.331 49.2365H83.3306ZM87.8775 49.2365C87.8775 43.5823 83.8036 38.8646 78.4379 37.8569L91.2733 0H30.602L43.4573 37.9334C38.2779 39.086 34.3928 43.7144 34.3928 49.2361C34.3928 53.3823 36.5839 57.024 39.8677 59.0705C38.2882 61.4239 36.4153 63.6383 34.2688 65.6636C30.8646 68.8748 27.0723 71.3103 22.9839 72.9129C18.8657 70.326 17.1249 65.4475 18.9326 61.1978L19.0743 60.8647L19.3401 60.2397C23.8633 58.662 27.1184 54.357 27.1184 49.3031C27.1184 42.9169 21.923 37.7215 15.5372 37.7215C9.15138 37.7215 3.95533 42.9169 3.95533 49.3031C3.95533 52.5263 5.28048 55.4451 7.41275 57.5469C7.01506 58.3895 6.61137 59.2293 6.2017 60.0661C4.2519 64.0702 2.04238 68.6087 1.20655 73.6488C-0.453065 83.6582 2.22415 91.6598 8.74533 96.1791C12.7023 98.9215 16.721 100 20.7648 100C28.379 100 36.0819 96.1745 43.6157 92.4322C49.0413 89.7376 54.6519 86.9509 60.1938 85.584C62.2559 85.0755 64.3775 84.7694 66.6239 84.4455C71.0787 83.8028 75.6848 83.1385 79.7651 80.7755C84.4949 78.036 87.7323 73.4405 88.6478 68.1683C89.4337 63.6419 88.488 59.1084 86.1814 55.2634C87.2929 53.4496 87.8799 51.3633 87.8775 49.2361V49.2365Z" fill="white"/>
</g>
</svg>
