<svg width="17" height="16" viewBox="0 0 17 16" fill="none" xmlns="http://www.w3.org/2000/svg">
<path fill-rule="evenodd" clip-rule="evenodd" d="M14.9 0H1.26493C0.612743 0 0.0588379 0.51581 0.0588379 1.15124V14.848C0.0588379 15.4842 0.422267 16 1.07446 16H14.7095C15.3625 16 16.0588 15.4842 16.0588 14.848V1.15124C16.0588 0.51581 15.5529 0 14.9 0ZM6.15408 6.09524H8.30798V7.19314H8.3316C8.65998 6.60114 9.62989 6 10.8291 6C13.1308 6 13.7731 7.2221 13.7731 9.48571V13.7143H11.4874V9.90248C11.4874 8.88914 11.0828 8 10.1366 8C8.9876 8 8.43979 8.7779 8.43979 10.0549V13.7143H6.15408V6.09524ZM2.34455 13.7143H4.63027V6.09524H2.34455V13.7143ZM4.91598 3.42857C4.91598 4.2179 4.27674 4.85714 3.48741 4.85714C2.69808 4.85714 2.05884 4.2179 2.05884 3.42857C2.05884 2.63924 2.69808 2 3.48741 2C4.27674 2 4.91598 2.63924 4.91598 3.42857Z" fill="#CCCCCC"/>
</svg>
