<svg width="41" height="40" viewBox="0 0 41 40" fill="none" xmlns="http://www.w3.org/2000/svg">
<path d="M36.9766 30.9373C34.7924 30.882 33.0996 31.1038 31.6798 31.7134C31.2703 31.8795 30.6149 31.8797 30.5603 32.4063C30.7788 32.6281 30.8061 32.9884 30.9972 33.2931C31.3252 33.8473 31.8981 34.5957 32.417 34.9839C32.9902 35.4272 33.5638 35.8706 34.1642 36.2586C35.2291 36.9238 36.4306 37.3117 37.4681 37.9769C38.069 38.3647 38.6692 38.8639 39.27 39.2795C39.5703 39.5009 39.7613 39.8616 40.1437 40V39.917C39.9524 39.6674 39.8978 39.3072 39.7069 39.03C39.4341 38.7529 39.1607 38.5034 38.8877 38.2262C38.096 37.1456 37.1131 36.2032 36.0483 35.4272C35.1747 34.8174 33.2633 33.9861 32.9085 32.9605C32.9085 32.9605 32.881 32.933 32.8538 32.9052C33.4544 32.8498 34.1642 32.6281 34.7378 32.4618C35.666 32.2121 36.5124 32.2677 37.4681 32.0183C37.9048 31.9074 38.3417 31.7688 38.7784 31.6302V31.3809C38.2873 30.882 37.9323 30.217 37.4135 29.7458C36.021 28.526 34.4919 27.3345 32.9085 26.3368C32.062 25.7825 30.9697 25.4221 30.0688 24.9511C29.7414 24.7846 29.1952 24.7016 29.0042 24.4245C28.5125 23.8148 28.2395 23.0112 27.8846 22.2905C27.0931 20.7661 26.3284 19.0756 25.6457 17.4683C25.1545 16.3873 24.8541 15.3063 24.2534 14.3088C21.4412 9.59729 18.3833 6.74269 13.6873 3.94337C12.677 3.36146 11.4757 3.11201 10.1924 2.80727C9.5101 2.77939 8.82729 2.72412 8.1448 2.69624C7.70791 2.50222 7.27101 1.97574 6.88873 1.72628C5.33276 0.728451 1.31894 -1.43304 0.172252 1.42155C-0.565008 3.22288 1.26449 4.99648 1.89221 5.91132C2.35673 6.54867 2.95714 7.26917 3.28481 7.98983C3.47596 8.46071 3.53041 8.95994 3.72155 9.4587C4.1586 10.6778 4.56788 12.0361 5.14146 13.1725C5.44183 13.7545 5.76934 14.3641 6.15162 14.8907C6.37007 15.1954 6.7522 15.3342 6.83427 15.833C6.45215 16.3873 6.42468 17.2188 6.20608 17.9116C5.22322 21.0434 5.60566 24.9234 6.99795 27.2236C7.43469 27.9162 8.47231 29.441 9.86476 28.8588C11.0935 28.36 10.8205 26.7803 11.1751 25.3946C11.2574 25.0616 11.2028 24.8402 11.3664 24.6185V24.6741C11.7487 25.4498 12.1308 26.1984 12.4858 26.9743C13.3323 28.3322 14.8065 29.7458 16.0351 30.6882C16.6906 31.1868 17.2093 32.046 18.0284 32.3509V32.2676H17.9737C17.8098 32.0181 17.5641 31.9074 17.3458 31.7132C16.8545 31.2146 16.3082 30.6048 15.9261 30.0505C14.7795 28.4983 13.769 26.7801 12.8681 25.0064C12.4314 24.1474 12.0489 23.205 11.6941 22.346C11.5301 22.013 11.5301 21.5144 11.2572 21.3483C10.8476 21.9579 10.247 22.4845 9.94668 23.2328C9.42818 24.4245 9.37341 25.8933 9.18227 27.4175C9.07305 27.4455 9.1275 27.4175 9.07289 27.4732C8.19941 27.2512 7.89905 26.3368 7.57122 25.5607C6.75204 23.5931 6.61551 20.4336 7.32562 18.1611C7.51676 17.579 8.33594 15.75 8.00827 15.1956C7.84444 14.669 7.29816 14.3641 6.99795 13.9485C6.64313 13.4218 6.26069 12.7569 6.01509 12.1747C5.35975 10.6227 5.03208 8.90435 4.32228 7.35232C3.99461 6.63166 3.4215 5.88361 2.95714 5.21838C2.43849 4.47017 1.86506 3.94337 1.45547 3.05657C1.3191 2.75184 1.1278 2.25292 1.34625 1.92031C1.40086 1.69857 1.50993 1.61557 1.72853 1.56014C2.08351 1.25509 3.09383 1.64313 3.44849 1.80944C4.45881 2.22488 5.30514 2.61325 6.15162 3.19516C6.53375 3.47233 6.94334 3.99897 7.43469 4.13756H8.00811C8.8819 4.33142 9.8646 4.19299 10.6838 4.44229C12.131 4.91333 13.4414 5.60627 14.6155 6.35465C18.1923 8.65489 21.1407 11.9252 23.134 15.833C23.4617 16.4701 23.5981 17.0525 23.8984 17.7174C24.472 19.0756 25.1818 20.4613 25.7549 21.7916C26.3284 23.094 26.8743 24.4245 27.6935 25.5054C28.1031 26.0872 29.7411 26.3922 30.4784 26.6971C31.0245 26.9464 31.871 27.1683 32.3623 27.4731C33.2906 28.0548 34.2188 28.7204 35.0926 29.3576C35.5295 29.6902 36.8945 30.3831 36.9766 30.9373V30.9373Z" fill="#53C1DE"/>
<path d="M9.12741 6.85352C8.66336 6.85352 8.33585 6.90927 8.00818 6.99226V7.0477H8.06279C8.28139 7.49118 8.66336 7.79607 8.93626 8.18396C9.15487 8.62728 9.34585 9.07092 9.56446 9.51441C9.59161 9.48653 9.61891 9.45897 9.61891 9.45897C10.0014 9.18163 10.1923 8.73831 10.1923 8.07309C10.0285 7.87923 10.0012 7.6852 9.86467 7.49118C9.70099 7.21384 9.34585 7.07542 9.12741 6.85352V6.85352Z" fill="#53C1DE"/>
</svg>
