<svg width="92" height="96" viewBox="0 0 92 96" fill="none" xmlns="http://www.w3.org/2000/svg">
<g id="Group 25">
<path id="Vector" d="M84.4899 74.0887C79.5169 73.9568 75.6625 74.4857 72.4299 75.9399C71.4974 76.3362 70.0052 76.3366 69.8809 77.5928C70.3783 78.1217 70.4404 78.9812 70.8756 79.7081C71.6224 81.03 72.927 82.8151 74.1082 83.7411C75.4135 84.7985 76.7195 85.856 78.0866 86.7816C80.5113 88.3683 83.2468 89.2936 85.609 90.8803C86.9772 91.8052 88.3439 92.996 89.7117 93.9873C90.3956 94.5155 90.8304 95.3757 91.7012 95.7059V95.508C91.2656 94.9126 91.1413 94.0534 90.7065 93.3923C90.0854 92.7311 89.463 92.1361 88.8413 91.475C87.0386 88.8972 84.8008 86.6493 82.3764 84.7985C80.3873 83.344 76.0352 81.3609 75.2273 78.9147C75.2273 78.9147 75.1648 78.8489 75.103 78.7828C76.4704 78.6506 78.0866 78.1217 79.3925 77.725C81.506 77.1296 83.433 77.2622 85.609 76.6672C86.6034 76.4027 87.5982 76.0721 88.5926 75.7415V75.1469C87.4742 73.9568 86.666 72.3704 85.4847 71.2465C82.3143 68.3371 78.8326 65.4949 75.2273 63.1151C73.3 61.7928 70.8131 60.9333 68.7618 59.8098C68.0164 59.4127 66.7726 59.2147 66.3378 58.5536C65.2183 57.0994 64.5966 55.1825 63.7887 53.4635C61.9864 49.8272 60.2453 45.795 58.691 41.9611C57.5726 39.3826 56.8887 36.8041 55.5209 34.4247C49.1179 23.1864 42.1553 16.3773 31.4631 9.70008C29.1627 8.31204 26.4275 7.71701 23.5057 6.99013C21.9522 6.92363 20.3975 6.79178 18.8435 6.72529C17.8488 6.26249 16.854 5.00668 15.9836 4.41165C12.4409 2.03152 3.3019 -3.1243 0.691026 3.68477C-0.987625 7.98147 3.17792 12.2121 4.60716 14.3942C5.66481 15.9145 7.03188 17.6331 7.77795 19.3521C8.21315 20.4753 8.33714 21.6661 8.77235 22.8558C9.76746 25.7637 10.6993 29.0037 12.0053 31.7144C12.6892 33.1024 13.4349 34.5566 14.3053 35.8128C14.8027 36.5396 15.6728 36.8706 15.8596 38.0603C14.9896 39.3826 14.927 41.366 14.4293 43.0185C12.1915 50.4887 13.0622 59.7437 16.2323 65.2304C17.2267 66.8825 19.5892 70.5196 22.7597 69.1308C25.5574 67.9411 24.9357 64.173 25.7432 60.8676C25.9305 60.0735 25.8061 59.5453 26.1788 59.0164V59.149C27.0492 60.9995 27.9193 62.7849 28.7275 64.6358C30.6548 67.8746 34.0114 71.2465 36.8088 73.4944C38.3013 74.6837 39.4822 76.7333 41.3474 77.4605V77.2618H41.2227C40.8497 76.6668 40.2901 76.4027 39.7931 75.9395C38.6743 74.7502 37.4305 73.2957 36.5605 71.9734C33.95 68.271 31.6492 64.1726 29.5979 59.9416C28.6035 57.8928 27.7327 55.6449 26.9249 53.5957C26.5515 52.8016 26.5515 51.6123 25.9301 51.216C24.9975 52.6701 23.6301 53.9263 22.9462 55.711C21.7656 58.5536 21.6409 62.0573 21.2057 65.6929C20.957 65.7597 21.081 65.6929 20.9567 65.8258C18.9679 65.2962 18.284 63.1151 17.5376 61.2639C15.6724 56.5705 15.3615 49.0342 16.9784 43.6136C17.4136 42.2251 19.2787 37.8623 18.5327 36.54C18.1596 35.2838 16.9158 34.5566 16.2323 33.5652C15.4244 32.3091 14.5537 30.7231 13.9945 29.3343C12.5023 25.6322 11.7563 21.5335 10.1401 17.8314C9.39407 16.1125 8.08917 14.3281 7.03188 12.7414C5.85097 10.9566 4.54535 9.70008 3.61276 7.58478C3.30226 6.8579 2.8667 5.66783 3.36408 4.87446C3.48842 4.34554 3.73675 4.14757 4.23449 4.01534C5.04273 3.2877 7.3431 4.21331 8.15062 4.61C10.451 5.60096 12.378 6.52733 14.3053 7.91536C15.1754 8.5765 16.108 9.83269 17.2267 10.1633H18.5323C20.5218 10.6257 22.7593 10.2955 24.6245 10.8901C27.9196 12.0137 30.9032 13.6666 33.5766 15.4517C41.7204 20.9385 48.4336 28.7392 52.9722 38.0603C53.7182 39.5802 54.0287 40.9693 54.7126 42.5553C56.0186 45.795 57.6347 49.1003 58.9396 52.2734C60.2453 55.3801 61.4883 58.5536 63.3535 61.1321C64.2861 62.5197 68.0157 63.2474 69.6944 63.9746C70.9378 64.5693 72.8652 65.0986 73.9839 65.8255C76.0974 67.2131 78.2109 68.8006 80.2004 70.3205C81.1952 71.1139 84.3031 72.7668 84.4899 74.0887Z" fill="black"/>
<path id="Vector_2" d="M21.0807 16.6409C20.0241 16.6409 19.2784 16.7739 18.5323 16.9718V17.1041H18.6567C19.1544 18.1619 20.0241 18.8892 20.6455 19.8144C21.1432 20.8718 21.5781 21.9301 22.0758 22.9879C22.1376 22.9214 22.1998 22.8557 22.1998 22.8557C23.0706 22.1941 23.5054 21.1367 23.5054 19.5499C23.1324 19.0875 23.0702 18.6247 22.7593 18.1619C22.3867 17.5004 21.5781 17.1702 21.0807 16.6409Z" fill="black"/>
</g>
</svg>
