<svg width="98" height="98" viewBox="0 0 98 98" fill="none" xmlns="http://www.w3.org/2000/svg">
<g id="Frame" clip-path="url(#clip0_1233_232)">
<path id="Vector" d="M49 98C76.062 98 98 76.062 98 49C98 21.938 76.062 0 49 0C21.938 0 0 21.938 0 49C0 76.062 21.938 98 49 98Z" fill="black"/>
<path id="Vector_2" d="M81.3988 85.761L37.644 29.3999H29.4V68.5836H35.9952V37.7753L76.2217 89.7489C78.0368 88.534 79.7661 87.201 81.3988 85.761Z" fill="url(#paint0_linear_1233_232)"/>
<path id="Vector_3" d="M69.1447 29.3999H62.6113V68.5999H69.1447V29.3999Z" fill="url(#paint1_linear_1233_232)"/>
</g>
<defs>
<linearGradient id="paint0_linear_1233_232" x1="59.3444" y1="63.4277" x2="78.6722" y2="87.3832" gradientUnits="userSpaceOnUse">
<stop stop-color="white"/>
<stop offset="1" stop-color="white" stop-opacity="0"/>
</linearGradient>
<linearGradient id="paint1_linear_1233_232" x1="65.878" y1="29.3999" x2="65.7686" y2="58.1875" gradientUnits="userSpaceOnUse">
<stop stop-color="white"/>
<stop offset="1" stop-color="white" stop-opacity="0"/>
</linearGradient>
<clipPath id="clip0_1233_232">
<rect width="98" height="98" fill="white"/>
</clipPath>
</defs>
</svg>
