<svg width="40" height="40" viewBox="0 0 40 40" fill="none" xmlns="http://www.w3.org/2000/svg">
<mask id="mask0_885_225" style="mask-type:alpha" maskUnits="userSpaceOnUse" x="0" y="0" width="40" height="40">
<path d="M20 40C31.0457 40 40 31.0457 40 20C40 8.9543 31.0457 0 20 0C8.9543 0 0 8.9543 0 20C0 31.0457 8.9543 40 20 40Z" fill="black"/>
</mask>
<g mask="url(#mask0_885_225)">
<path d="M20 40C31.0457 40 40 31.0457 40 20C40 8.9543 31.0457 0 20 0C8.9543 0 0 8.9543 0 20C0 31.0457 8.9543 40 20 40Z" fill="black"/>
<path d="M33.2241 35.0047L15.3649 12.0002H12.0001V27.9936H14.692V15.4188L31.1109 36.6325C31.8518 36.1367 32.5576 35.5925 33.2241 35.0047Z" fill="url(#paint0_linear_885_225)"/>
<path d="M28.2223 12.0002H25.5556V28.0002H28.2223V12.0002Z" fill="url(#paint1_linear_885_225)"/>
</g>
<defs>
<linearGradient id="paint0_linear_885_225" x1="24.2223" y1="25.8891" x2="32.1112" y2="35.6669" gradientUnits="userSpaceOnUse">
<stop stop-color="white"/>
<stop offset="1" stop-color="white" stop-opacity="0"/>
</linearGradient>
<linearGradient id="paint1_linear_885_225" x1="26.8889" y1="12.0002" x2="26.8443" y2="23.7502" gradientUnits="userSpaceOnUse">
<stop stop-color="white"/>
<stop offset="1" stop-color="white" stop-opacity="0"/>
</linearGradient>
</defs>
</svg>
