<svg width="36" height="40" viewBox="0 0 36 40" fill="none" xmlns="http://www.w3.org/2000/svg">
<path d="M17.6436 40C17.0956 40 16.5841 39.853 16.1093 39.5957L11.2509 36.6926C10.5204 36.2884 10.8857 36.1415 11.1048 36.068C12.0912 35.7372 12.2737 35.6637 13.2965 35.0758C13.4061 35.0023 13.5524 35.0389 13.6619 35.1124L17.3879 37.3542C17.534 37.4276 17.7165 37.4276 17.8261 37.3542L32.4017 28.8653C32.5468 28.7918 32.6212 28.6449 32.6212 28.4612V11.5204C32.6212 11.3366 32.5468 11.1896 32.4017 11.1161L17.8261 2.66417C17.6801 2.59068 17.4973 2.59068 17.3879 2.66417L2.81277 11.1161C2.66652 11.1896 2.59358 11.3735 2.59358 11.5204V28.4612C2.59358 28.6082 2.66652 28.7918 2.81277 28.8653L6.79442 31.1804C8.94963 32.2829 10.3012 30.9968 10.3012 29.7106V12.9903C10.3012 12.7698 10.4837 12.5493 10.7396 12.5493H12.6025C12.8217 12.5493 13.0409 12.7331 13.0409 12.9903V29.7106C13.0409 32.6135 11.4701 34.304 8.73044 34.304C7.89035 34.304 7.23279 34.304 5.3697 33.3853L1.53411 31.1804C0.58443 30.6293 0 29.6002 0 28.4979V11.5571C0 10.4547 0.58443 9.42587 1.53411 8.8746L16.1093 0.385968C17.0225 -0.128656 18.2645 -0.128656 19.1777 0.385968L33.7535 8.8746C34.7024 9.42587 35.2866 10.4547 35.2866 11.5571V28.4979C35.2866 29.6002 34.7024 30.6293 33.7535 31.1804L19.1777 39.6692C18.7393 39.853 18.1916 40 17.6436 40Z" fill="#5FA04E"/>
<path d="M22.1933 28.4077C15.8309 28.4077 14.5223 25.4468 14.5223 22.93C14.5223 22.708 14.704 22.4859 14.9584 22.4859H16.8487C17.0668 22.4859 17.2487 22.634 17.2487 22.856C17.5394 24.8176 18.3756 25.7798 22.2294 25.7798C25.2828 25.7798 26.5919 25.0767 26.5919 23.4112C26.5919 22.4488 26.2271 21.7455 21.4654 21.2645C17.5031 20.8573 15.0311 19.9691 15.0311 16.7491C15.0311 13.7512 17.5031 11.9746 21.6472 11.9746C26.3012 11.9746 28.5907 13.6032 28.8814 17.1562C28.8814 17.2672 28.8453 17.3783 28.7731 17.4892C28.699 17.5632 28.5907 17.6375 28.4805 17.6375H26.5539C26.3734 17.6375 26.191 17.4892 26.1549 17.3043C25.7179 15.2687 24.5912 14.6023 21.611 14.6023C18.2665 14.6023 17.8666 15.7868 17.8666 16.675C17.8666 17.7484 18.3391 18.0816 22.8469 18.6737C27.3177 19.2659 29.4268 20.1172 29.4268 23.3001C29.4268 26.5571 26.7724 28.4077 22.1933 28.4077Z" fill="#5FA04E"/>
</svg>
