<svg width="86" height="98" viewBox="0 0 86 98" fill="none" xmlns="http://www.w3.org/2000/svg">
<g id="Group 76">
<path id="Vector" d="M39.1764 1.12652C41.492 -0.262017 44.508 -0.268289 46.8216 1.12652C58.4611 8.01659 70.1041 14.8959 81.7416 21.7901C83.9304 23.0818 85.3946 25.6338 85.3723 28.276V69.7293C85.3886 72.4809 83.7798 75.0939 81.4705 76.3563C69.8693 83.2084 58.2741 90.0688 46.6749 96.9209C44.3115 98.3367 41.2349 98.2276 38.9453 96.6958C35.4672 94.5836 31.9832 92.4818 28.5049 90.3716C27.7941 89.9277 26.9928 89.5744 26.4909 88.8524C26.9346 88.2259 27.7279 88.1479 28.3725 87.8744C29.8243 87.3907 31.1577 86.6144 32.4914 85.8611C32.8287 85.6193 33.2405 85.7119 33.5637 85.9283C36.5379 87.7148 39.4857 89.5532 42.4698 91.3225C43.1064 91.7076 43.751 91.1964 44.2952 90.8786C55.6795 84.138 67.0778 77.4229 78.4601 70.6802C78.8819 70.4677 79.115 69.9986 79.0808 69.5147C79.0887 55.8401 79.0828 42.1631 79.0847 28.4885C79.133 27.9394 78.8296 27.4345 78.3557 27.2098C66.7947 20.389 55.2398 13.5578 43.6809 6.73537C43.4806 6.59114 43.2434 6.51375 43.0003 6.51337C42.7573 6.513 42.5198 6.58966 42.3192 6.73328C30.7602 13.5578 19.2073 20.3953 7.64834 27.2157C7.17605 27.4408 6.85908 27.9373 6.91529 28.4885C6.91728 42.1631 6.91529 55.8401 6.91529 69.5168C6.89524 69.7529 6.94475 69.9898 7.05714 70.1956C7.16954 70.4014 7.33942 70.5661 7.54391 70.6677C10.6285 72.5001 13.717 74.3197 16.8036 76.1459C18.5424 77.1264 20.6774 77.709 22.5932 76.9577C24.2838 76.3225 25.4689 74.5151 25.4366 72.6346C25.4526 59.0398 25.4286 45.443 25.4486 31.8503C25.4063 31.2468 25.9528 30.7482 26.5129 30.805C27.995 30.7945 29.4791 30.7841 30.9611 30.8092C31.5798 30.7945 32.0055 31.4444 31.929 32.0524C31.923 45.7332 31.945 59.4144 31.919 73.0952C31.923 76.7413 30.4932 80.7087 27.2739 82.4927C23.3079 84.645 18.406 84.1886 14.488 82.1247C11.0961 80.3512 7.85921 78.2581 4.52753 76.358C2.21229 75.1026 0.611468 72.4792 0.627766 69.7297V28.276C0.603486 25.5791 2.12581 22.9807 4.38285 21.7079C15.982 14.8502 27.5792 7.98732 39.1764 1.12652Z" fill="#8CC84B"/>
<path id="Vector_2" d="M49.2955 29.8414C54.3544 29.5003 59.7702 29.6393 64.3225 32.2502C67.8471 34.2509 69.8011 38.45 69.8633 42.5522C69.7649 43.1055 69.2128 43.4108 68.7085 43.3728C67.2408 43.3707 65.7726 43.3937 64.3049 43.3623C63.6822 43.3874 63.3204 42.786 63.2422 42.2093C62.8205 40.2466 61.7987 38.3026 60.0353 37.3559C57.3282 35.936 54.1894 36.0074 51.2376 36.037C49.0826 36.1569 46.7654 36.3524 44.9397 37.6799C43.5382 38.6855 43.1124 40.7156 43.6127 42.3504C44.0843 43.5243 45.3778 43.9031 46.4361 44.2522C52.5327 45.9227 58.9932 45.7565 64.9734 47.9548C67.4493 48.851 69.8713 50.5932 70.7188 53.3089C71.8274 56.9487 71.3414 61.2994 68.8695 64.2214C66.8649 66.626 63.9453 67.9347 61.0334 68.6455C57.1596 69.5504 53.1394 69.5734 49.2054 69.1717C45.5062 68.7299 41.6566 67.7117 38.8009 65.0712C36.3589 62.8499 35.1662 59.3889 35.2846 56.0484C35.3129 55.4842 35.849 55.0908 36.3649 55.1372C37.843 55.1246 39.3211 55.1205 40.7992 55.1393C41.3895 55.095 41.8273 55.6295 41.8575 56.2125C42.1303 58.0826 42.8011 60.0453 44.3577 61.1541C47.3618 63.1844 51.1311 63.0454 54.5709 63.1022C57.4207 62.9698 60.6196 62.9297 62.9452 60.9565C64.1722 59.831 64.5357 57.9481 64.2041 56.3282C63.8449 54.9605 62.4792 54.3232 61.3065 53.9065C55.288 51.912 48.7554 52.6357 42.7951 50.3803C40.3754 49.4844 38.0356 47.7907 37.106 45.1864C35.8088 41.5006 36.4032 36.9416 39.1342 34.1182C41.797 31.3097 45.6409 30.2282 49.2955 29.8411V29.8414Z" fill="#8CC84B"/>
</g>
</svg>
