<svg width="92" height="96" viewBox="0 0 92 96" fill="none" xmlns="http://www.w3.org/2000/svg">
<g id="Drizzle">
<rect id="Rectangle 2" x="0.5" y="0.169922" width="91" height="95.66" rx="16" fill="black"/>
<path id="Polygon 1" d="M46 20L48.9268 20.1534L51.8215 20.6119L54.6525 21.3704L57.3886 22.4207L60 23.7513L62.458 25.3475L64.7357 27.1919L66.8081 29.2643L68.6525 31.542L70.2487 34L71.5793 36.6114L72.6296 39.3475L73.3881 42.1785L73.8466 45.0732L74 48L73.8466 50.9268L73.3881 53.8215L72.6296 56.6525L71.5793 59.3886L70.2487 62L68.6525 64.458L66.8081 66.7357L64.7357 68.8081L62.458 70.6525L60 72.2487L57.3886 73.5793L54.6525 74.6296L51.8215 75.3881L48.9268 75.8466L46 76L43.0732 75.8466L40.1785 75.3881L37.3475 74.6296L34.6114 73.5793L32 72.2487L29.542 70.6525L27.2643 68.8081L25.1919 66.7357L23.3475 64.458L21.7513 62L20.4207 59.3886L19.3704 56.6525L18.6119 53.8215L18.1534 50.9268L18 48L18.1534 45.0732L18.6119 42.1785L19.3704 39.3475L20.4207 36.6114L21.7513 34L23.3475 31.542L25.1919 29.2643L27.2643 27.1919L29.542 25.3475L32 23.7513L34.6114 22.4207L37.3475 21.3704L40.1785 20.6119L43.0732 20.1534L46 20Z" fill="white"/>
<rect id="Rectangle 7" x="74.1426" y="41.6699" width="8" height="51.4735" transform="rotate(53.063 74.1426 41.6699)" fill="black"/>
<rect id="Rectangle 8" x="48.3894" y="50.6699" width="4" height="34.2669" transform="rotate(53.063 48.3894 50.6699)" fill="black"/>
</g>
</svg>
