<svg width="76" height="96" viewBox="0 0 76 96" fill="none" xmlns="http://www.w3.org/2000/svg">
<path id="Vector" fill-rule="evenodd" clip-rule="evenodd" d="M1.4796 65.8938C0.550338 64.3534 0.5363 62.3912 1.44341 60.8358L35.5976 2.28214C37.4973 -0.974596 42.0844 -0.689835 43.6061 2.77926L74.8076 73.9145C75.9651 76.5539 74.6326 79.6593 71.9837 80.4946L23.4474 95.798C21.4946 96.4136 19.3904 95.5886 18.2989 93.7788L1.4796 65.8938ZM39.5383 19.4027C39.8674 17.6802 42.113 17.4318 42.7763 19.0446L64.2986 71.386C64.7036 72.3715 64.1995 73.508 63.2207 73.8149L29.6859 84.336C28.4532 84.7227 27.2725 83.5908 27.5258 82.265L39.5383 19.4027Z" fill="black"/>
</svg>
