<svg width="47" height="40" viewBox="0 0 47 40" fill="none" xmlns="http://www.w3.org/2000/svg">
<path d="M27.1983 19.9628C27.1983 17.756 25.3533 15.9668 23.077 15.9668C20.801 15.9668 18.9556 17.756 18.9556 19.9628C18.9556 22.1699 20.801 23.959 23.077 23.959C25.3533 23.959 27.1983 22.1699 27.1983 19.9628Z" fill="#53C1DE"/>
<path fill-rule="evenodd" clip-rule="evenodd" d="M36.4622 12.5442C37.3325 9.11504 38.4265 2.75612 34.5698 0.600244C30.7312 -1.54623 25.736 2.56681 23.0983 5.03566C20.4683 2.59141 15.3328 -1.50405 11.4794 0.658675C7.64232 2.81235 8.8256 9.06585 9.71523 12.5165C6.13586 13.5022 0 15.6252 0 19.9629C0 24.2883 6.12948 26.5982 9.68766 27.5829C8.79474 31.0526 7.67071 37.2168 11.5127 39.3657C15.3805 41.528 20.5 37.53 23.1622 35.0342C25.8168 37.5175 30.764 41.5417 34.6034 39.3868C38.4548 37.2251 37.4517 30.9514 36.562 27.4808C40.0112 26.4938 46.1538 24.2343 46.1538 19.9629C46.1538 15.6669 39.9851 13.5266 36.4622 12.5442ZM36.0249 25.6415C35.4408 23.8486 34.6523 21.942 33.6878 19.9725C34.6085 18.0494 35.3663 16.1674 35.9342 14.386C38.5168 15.112 44.1823 16.7712 44.1823 19.9629C44.1823 23.1846 38.7455 24.8595 36.0249 25.6415ZM33.6154 37.7323C30.7508 39.34 26.4955 35.4917 24.5351 33.6629C25.8357 32.2837 27.1354 30.6803 28.4038 28.8998C30.6352 28.708 32.7431 28.3942 34.6548 27.9657C35.2809 30.4206 36.4926 36.1174 33.6154 37.7323ZM12.4979 37.7094C9.63297 36.1077 10.9424 30.6071 11.5993 28.0512C13.4898 28.4568 15.5825 28.7485 17.8191 28.9243C19.0958 30.6665 20.4332 32.2678 21.7809 33.6703C20.1158 35.232 15.3762 39.3185 12.4979 37.7094ZM1.97152 19.9629C1.97152 16.7292 7.60318 15.082 10.2447 14.3578C10.8223 16.1792 11.5799 18.0837 12.4942 20.0095C11.5681 21.964 10.7996 23.8986 10.2167 25.7415C7.69798 25.0425 1.97152 23.1986 1.97152 19.9629ZM12.4672 2.31314C15.3438 0.698706 19.8072 4.63051 21.7168 6.4002C20.376 7.79621 19.0509 9.38554 17.7851 11.1177C15.6145 11.3128 13.5365 11.626 11.6263 12.0457C10.9096 9.26263 9.59372 3.92583 12.4672 2.31314ZM29.8143 13.1955C31.2869 13.3757 32.6978 13.6154 34.0226 13.9086C33.6249 15.1446 33.1292 16.4371 32.5454 17.762C31.6991 16.2051 30.7906 14.6794 29.8143 13.1955ZM23.0989 7.76631C24.0083 8.72149 24.9191 9.78815 25.8151 10.9454C23.9977 10.862 22.1774 10.8617 20.36 10.9442C21.2568 9.79766 22.1754 8.73258 23.0989 7.76631ZM13.6254 17.7606C13.0512 16.4403 12.56 15.1422 12.1588 13.8885C13.4757 13.6028 14.88 13.3692 16.3431 13.192C15.364 14.6726 14.4571 16.1977 13.6254 17.7606ZM16.3851 26.8703C14.8737 26.7068 13.4481 26.4851 12.1316 26.2072C12.5391 24.9315 13.0412 23.6054 13.6276 22.2566C14.4708 23.8358 15.3915 25.3757 16.3851 26.8703ZM23.1535 32.2946C22.2191 31.3169 21.2869 30.2355 20.3766 29.0725C22.2043 29.142 24.0355 29.1422 25.8631 29.0631C24.9643 30.2474 24.0568 31.3303 23.1535 32.2946ZM32.5642 22.188C33.1811 23.5514 33.7011 24.8703 34.1142 26.1245C32.7758 26.4206 31.3311 26.6591 29.8088 26.8362C30.7923 25.3242 31.7152 23.7748 32.5642 22.188ZM27.3035 27.0678C24.5078 27.2615 21.6948 27.2594 18.8982 27.0837C17.3091 24.8331 15.8945 22.4662 14.6734 20.0089C15.8886 17.5568 17.2929 15.1945 18.8745 12.9474C21.6731 12.7423 24.4889 12.7417 27.2875 12.9486C28.8555 15.1955 30.2577 17.5517 31.5011 19.9817C30.2725 22.4326 28.8608 24.7997 27.3035 27.0678ZM33.5851 2.25631C36.4625 3.86544 35.1817 9.5804 34.5531 12.0655C32.6383 11.6371 30.5589 11.3183 28.382 11.1202C27.1137 9.36929 25.7997 7.7772 24.4806 6.39921C26.4146 4.5914 30.7355 0.662906 33.5851 2.25631Z" fill="#53C1DE"/>
</svg>
