<svg width="96" height="96" viewBox="0 0 96 96" fill="none" xmlns="http://www.w3.org/2000/svg">
<g id="Group">
<path id="Vector" d="M48 65.1594C73.129 65.1594 93.5 57.4769 93.5 48C93.5 38.5231 73.129 30.8406 48 30.8406C22.871 30.8406 2.5 38.5231 2.5 48C2.5 57.4769 22.871 65.1594 48 65.1594Z" stroke="#61DAFB" stroke-width="5"/>
<path id="Vector_2" d="M32.9547 56.5797C45.5192 78.0748 62.4407 91.6587 70.7499 86.9203C79.0592 82.1819 75.6096 60.9154 63.0451 39.4203C50.4807 17.9252 33.5592 4.34126 25.2499 9.0797C16.9407 13.8181 20.3902 35.0846 32.9547 56.5797Z" stroke="#61DAFB" stroke-width="5"/>
<path id="Vector_3" d="M32.9548 39.4203C20.3903 60.9154 16.9407 82.1819 25.25 86.9203C33.5592 91.6588 50.4807 78.0748 63.0452 56.5797C75.6097 35.0846 79.0592 13.8182 70.75 9.07972C62.4407 4.34128 45.5192 17.9252 32.9548 39.4203Z" stroke="#61DAFB" stroke-width="5"/>
<path id="Vector_4" d="M48.5153 55.7727C53.0683 55.7727 56.7593 52.2928 56.7593 48C56.7593 43.7073 53.0683 40.2273 48.5153 40.2273C43.9622 40.2273 40.2712 43.7073 40.2712 48C40.2712 52.2928 43.9622 55.7727 48.5153 55.7727Z" fill="#61DAFB"/>
</g>
</svg>
