<svg width="100" height="96" viewBox="0 0 100 96" fill="none" xmlns="http://www.w3.org/2000/svg">
<path id="Vector" d="M69.2895 66.8344C72.9797 66.4524 75.7793 63.2711 75.652 59.4532C75.525 55.6356 72.3434 52.5813 68.5258 52.5813H68.2715C64.3262 52.7086 61.2723 56.0172 61.3996 59.9622C61.527 61.8711 62.2902 63.5254 63.4356 64.6707C59.109 73.1973 52.4918 79.4329 42.566 84.6504C35.8215 88.2137 28.8226 89.4864 21.8238 88.5957C16.0972 87.8321 11.6433 85.2872 8.8433 81.0872C4.77142 74.8516 4.38978 68.1067 7.82572 61.3622C10.2437 56.5262 14.0609 52.9629 16.4789 51.1813C15.9699 49.527 15.2062 46.7274 14.8246 44.6915C-3.62741 58.0536 -1.71843 76.1243 3.8808 84.6504C8.08002 91.0137 16.6062 94.9586 26.023 94.9586C28.5679 94.9586 31.1129 94.7039 33.6582 94.068C49.9469 90.8864 62.2906 81.2145 69.2895 66.8344ZM91.6864 51.0543C82.0149 39.7282 67.7625 33.4926 51.4738 33.4926H49.4379C48.2926 31.202 45.8746 29.6747 43.2023 29.6747H42.9476C39.0031 29.802 35.9492 33.1106 36.0761 37.0559C36.2035 40.8735 39.3847 43.9278 43.2023 43.9278H43.4566C46.2562 43.8004 48.6742 42.0188 49.6922 39.6008H51.9828C61.6543 39.6008 70.8164 42.4004 79.0883 47.8727C85.4508 52.0723 90.0321 57.5446 92.577 64.1618C94.7403 69.5067 94.6129 74.7243 92.3223 79.1786C88.7594 85.9231 82.7785 89.6137 74.8887 89.6137C69.7984 89.6137 64.9629 88.0864 62.4176 86.9411C61.018 88.2137 58.4727 90.2496 56.691 91.5227C62.1633 94.0676 67.7625 95.4676 73.107 95.4676C85.3235 95.4676 94.3586 88.7227 97.7946 81.9782C101.485 74.5969 101.23 61.8711 91.6864 51.0543ZM27.041 68.9973C27.1683 72.8153 30.3496 75.8692 34.1672 75.8692H34.4218C38.3668 75.7422 41.4207 72.4332 41.2933 68.4883C41.1664 64.6704 37.9847 61.6165 34.1672 61.6165H33.9129C33.6582 61.6165 33.2761 61.6164 33.0222 61.7434C27.8047 53.0899 25.6414 43.6731 26.405 33.4922C26.9136 25.8567 29.459 19.2391 33.9129 13.7668C37.6031 9.05825 44.7293 6.76763 49.5652 6.64067C63.0539 6.38599 68.7801 23.184 69.1621 29.929C70.8164 30.3106 73.616 31.2016 75.525 31.8379C73.9977 11.2223 61.2723 0.532471 49.0562 0.532471C37.6031 0.532471 27.041 8.80435 22.8414 21.0211C16.9878 37.3102 20.8054 52.9629 27.9316 65.3071C27.2957 66.1977 26.9136 67.5977 27.041 68.9977V68.9973Z" fill="#764ABC"/>
</svg>
