<svg width="262" height="28" viewBox="0 0 262 28" fill="none" xmlns="http://www.w3.org/2000/svg">
<path fill-rule="evenodd" clip-rule="evenodd" d="M9.33334 14C9.33334 11.4228 11.4227 9.33337 14 9.33337C16.5773 9.33337 18.6667 11.4228 18.6667 14C18.6667 16.5773 16.5773 18.6667 14 18.6667C11.4227 18.6667 9.33334 16.5773 9.33334 14Z" fill="#1ABCFE"/>
<path fill-rule="evenodd" clip-rule="evenodd" d="M0 23.3333C0 20.756 2.08934 18.6666 4.66667 18.6666H9.33333V23.3333C9.33333 25.9106 7.24395 28 4.66667 28C2.08934 28 0 25.9106 0 23.3333Z" fill="#0ACF83"/>
<path fill-rule="evenodd" clip-rule="evenodd" d="M9.33334 0V9.33333H14C16.5773 9.33333 18.6667 7.24395 18.6667 4.66667C18.6667 2.08934 16.5773 0 14 0H9.33334Z" fill="#FF7262"/>
<path fill-rule="evenodd" clip-rule="evenodd" d="M0 4.66667C0 7.24395 2.08934 9.33333 4.66667 9.33333H9.33333V0H4.66667C2.08934 0 0 2.08934 0 4.66667Z" fill="#F24E1E"/>
<path fill-rule="evenodd" clip-rule="evenodd" d="M0 14C0 16.5773 2.08934 18.6667 4.66667 18.6667H9.33333V9.33337H4.66667C2.08934 9.33337 0 11.4228 0 14Z" fill="#A259FF"/>
<path d="M72.5503 21.6561C71.0213 21.6174 69.8364 21.7726 68.8426 22.1994C68.5558 22.3157 68.0971 22.3158 68.0589 22.6844C68.2118 22.8397 68.2309 23.0919 68.3647 23.3052C68.5943 23.6931 68.9954 24.217 69.3585 24.4887C69.7598 24.7991 70.1613 25.1094 70.5816 25.381C71.3271 25.8467 72.1681 26.1182 72.8943 26.5839C73.3149 26.8553 73.7351 27.2047 74.1556 27.4957C74.3659 27.6506 74.4996 27.9031 74.7673 28V27.9419C74.6334 27.7672 74.5951 27.5151 74.4615 27.321C74.2705 27.127 74.0792 26.9524 73.888 26.7584C73.3338 26.0019 72.6458 25.3422 71.9005 24.7991C71.2889 24.3722 69.951 23.7903 69.7026 23.0724C69.7026 23.0724 69.6834 23.0531 69.6644 23.0337C70.0848 22.9949 70.5816 22.8397 70.9831 22.7232C71.6329 22.5485 72.2253 22.5874 72.8943 22.4128C73.2 22.3352 73.5059 22.2382 73.8116 22.1412V21.9667C73.4677 21.6174 73.2193 21.1519 72.8561 20.822C71.8814 19.9682 70.811 19.1341 69.7026 18.4358C69.11 18.0477 68.3455 17.7955 67.7148 17.4658C67.4857 17.3492 67.1033 17.2911 66.9696 17.0971C66.6254 16.6704 66.4343 16.1078 66.1859 15.6034C65.6318 14.5362 65.0965 13.3529 64.6187 12.2278C64.2748 11.4711 64.0646 10.7144 63.6441 10.0162C61.6755 6.7181 59.535 4.71989 56.2478 2.76036C55.5405 2.35302 54.6996 2.1784 53.8014 1.96509C53.3237 1.94558 52.8458 1.90688 52.368 1.88737C52.0622 1.75155 51.7564 1.38302 51.4888 1.2084C50.3996 0.509916 47.5899 -1.00313 46.7872 0.995085C46.2712 2.25601 47.5518 3.49754 47.9912 4.13793C48.3164 4.58407 48.7367 5.08842 48.966 5.59288C49.0998 5.9225 49.138 6.27196 49.2718 6.62109C49.5777 7.47446 49.8642 8.42528 50.2657 9.22078C50.4759 9.62812 50.7052 10.0549 50.9728 10.4235C51.1257 10.6368 51.3932 10.7339 51.4507 11.0831C51.1832 11.4711 51.1639 12.0532 51.0109 12.5381C50.3229 14.7304 50.5906 17.4464 51.5652 19.0565C51.8709 19.5414 52.5973 20.6087 53.572 20.2012C54.4321 19.852 54.241 18.7462 54.4893 17.7762C54.5468 17.5432 54.5086 17.3882 54.6232 17.2329V17.2719C54.8908 17.8149 55.1583 18.3389 55.4067 18.882C55.9993 19.8325 57.0312 20.822 57.8912 21.4817C58.3501 21.8307 58.7132 22.4322 59.2866 22.6456V22.5873H59.2482C59.1336 22.4127 58.9615 22.3352 58.8087 22.1993C58.4648 21.8502 58.0824 21.4234 57.8149 21.0353C57.0123 19.9488 56.305 18.7461 55.6743 17.5045C55.3686 16.9032 55.1009 16.2435 54.8525 15.6422C54.7377 15.4091 54.7377 15.0601 54.5467 14.9438C54.26 15.3705 53.8396 15.7392 53.6293 16.2629C53.2664 17.0971 53.2281 18.1253 53.0943 19.1922C53.0178 19.2119 53.0559 19.1922 53.0177 19.2313C52.4063 19.0758 52.196 18.4358 51.9665 17.8925C51.3931 16.5152 51.2975 14.3035 51.7946 12.7128C51.9284 12.3053 52.5018 11.025 52.2725 10.6369C52.1578 10.2683 51.7754 10.0549 51.5652 9.76393C51.3169 9.39529 51.0491 8.92986 50.8772 8.5223C50.4185 7.43588 50.1891 6.23304 49.6923 5.14662C49.4629 4.64216 49.0617 4.11852 48.7367 3.65287C48.3736 3.12912 47.9722 2.76036 47.6855 2.1396C47.59 1.92629 47.4561 1.57704 47.609 1.34422C47.6473 1.189 47.7236 1.1309 47.8766 1.0921C48.1251 0.87856 48.8323 1.15019 49.0806 1.26661C49.7878 1.55742 50.3803 1.82927 50.9728 2.23661C51.2403 2.43063 51.527 2.79928 51.8709 2.89629H52.2723C52.884 3.03199 53.5719 2.93509 54.1453 3.1096C55.1584 3.43933 56.0756 3.92439 56.8975 4.44825C59.4013 6.05842 61.4652 8.34767 62.8605 11.0831C63.0899 11.5291 63.1853 11.9368 63.3956 12.4022C63.7971 13.3529 64.2939 14.3229 64.6951 15.2541C65.0965 16.1658 65.4787 17.0971 66.0521 17.8538C66.3388 18.261 67.4855 18.4746 68.0015 18.688C68.3838 18.8625 68.9764 19.0178 69.3203 19.2312C69.9701 19.6384 70.6198 20.1043 71.2315 20.5503C71.5373 20.7831 72.4928 21.2682 72.5503 21.6561V21.6561Z" fill="#53C1DE"/>
<path d="M53.0558 4.79724C52.731 4.79724 52.5018 4.83627 52.2724 4.89436V4.93317H52.3106C52.4636 5.24361 52.731 5.45703 52.922 5.72855C53.0751 6.03888 53.2088 6.34943 53.3618 6.65986C53.3808 6.64035 53.3999 6.62106 53.3999 6.62106C53.6676 6.42692 53.8013 6.1166 53.8013 5.65094C53.6866 5.51524 53.6675 5.37942 53.5719 5.24361C53.4574 5.04947 53.2088 4.95257 53.0558 4.79724V4.79724Z" fill="#53C1DE"/>
<mask id="mask0_877_271" style="mask-type:alpha" maskUnits="userSpaceOnUse" x="102" y="0" width="29" height="28">
<path d="M116.767 28C124.499 28 130.767 21.732 130.767 14C130.767 6.26801 124.499 0 116.767 0C109.035 0 102.767 6.26801 102.767 14C102.767 21.732 109.035 28 116.767 28Z" fill="black"/>
</mask>
<g mask="url(#mask0_877_271)">
<path d="M116.767 28C124.499 28 130.767 21.732 130.767 14C130.767 6.26801 124.499 0 116.767 0C109.035 0 102.767 6.26801 102.767 14C102.767 21.732 109.035 28 116.767 28Z" fill="black"/>
<path d="M126.024 24.5034L113.523 8.40027H111.167V19.5956H113.052V10.7933L124.545 25.6428C125.064 25.2958 125.558 24.9148 126.024 24.5034Z" fill="url(#paint0_linear_877_271)"/>
<path d="M122.523 8.40027H120.656V19.6003H122.523V8.40027Z" fill="url(#paint1_linear_877_271)"/>
</g>
<path d="M184.033 0H161.502C159.992 0 158.767 1.22422 158.767 2.73438V25.2656C158.767 26.7758 159.992 28 161.502 28H184.033C185.543 28 186.767 26.7758 186.767 25.2656V2.73438C186.767 1.22422 185.543 0 184.033 0Z" fill="#3178C6"/>
<path fill-rule="evenodd" clip-rule="evenodd" d="M176.1 22.281V25.0187C176.545 25.2469 177.071 25.4179 177.679 25.532C178.287 25.6461 178.927 25.7031 179.6 25.7031C180.257 25.7031 180.88 25.6404 181.471 25.5149C182.061 25.3894 182.579 25.1827 183.024 24.8946C183.469 24.6066 183.821 24.2302 184.081 23.7653C184.341 23.3005 184.47 22.7259 184.47 22.0415C184.47 21.5452 184.396 21.1104 184.248 20.7368C184.1 20.3632 183.886 20.031 183.606 19.7401C183.326 19.4492 182.991 19.1883 182.6 18.9573C182.209 18.7263 181.769 18.5081 181.278 18.3028C180.919 18.1545 180.596 18.0105 180.311 17.8708C180.026 17.731 179.783 17.5884 179.583 17.443C179.384 17.2975 179.23 17.1435 179.121 16.981C179.013 16.8184 178.959 16.6345 178.959 16.4292C178.959 16.241 179.007 16.0713 179.104 15.9201C179.201 15.769 179.338 15.6393 179.515 15.5309C179.692 15.4225 179.909 15.3384 180.165 15.2785C180.422 15.2186 180.707 15.1887 181.021 15.1887C181.249 15.1887 181.49 15.2058 181.744 15.24C181.998 15.2742 182.254 15.327 182.51 15.3982C182.767 15.4696 183.017 15.5594 183.259 15.6678C183.502 15.7761 183.726 15.9016 183.931 16.0442V13.4862C183.515 13.3265 183.06 13.2081 182.566 13.1311C182.073 13.0541 181.506 13.0156 180.867 13.0156C180.217 13.0156 179.6 13.0855 179.018 13.2252C178.436 13.365 177.924 13.5831 177.482 13.8797C177.04 14.1763 176.69 14.5541 176.434 15.0133C176.177 15.4724 176.049 16.0214 176.049 16.6602C176.049 17.4758 176.284 18.1716 176.755 18.7477C177.225 19.3237 177.94 19.8114 178.899 20.2106C179.275 20.3646 179.626 20.5157 179.951 20.6641C180.277 20.8124 180.558 20.9664 180.794 21.1261C181.031 21.2857 181.218 21.4597 181.355 21.6479C181.492 21.8361 181.56 22.05 181.56 22.2896C181.56 22.4664 181.518 22.6303 181.432 22.7815C181.346 22.9327 181.217 23.0638 181.043 23.175C180.869 23.2863 180.652 23.3732 180.392 23.4359C180.132 23.4987 179.829 23.5301 179.481 23.5301C178.887 23.5301 178.3 23.426 177.717 23.2178C177.136 23.0097 176.596 22.6974 176.1 22.281ZM171.497 15.5357H175.009V13.2891H165.22V15.5357H168.715V25.5391H171.497V15.5357Z" fill="white"/>
<path d="M226.466 9.33333C228.026 3.11111 231.926 0 238.165 0C247.525 0 248.695 7 253.374 8.16667C256.494 8.94444 259.224 7.77778 261.564 4.66667C260.004 10.8889 256.104 14 249.864 14C240.505 14 239.335 7 234.656 5.83333C231.536 5.05556 228.806 6.22222 226.466 9.33333ZM214.767 23.3333C216.327 17.1111 220.227 14 226.466 14C235.826 14 236.996 21 241.675 22.1667C244.795 22.9444 247.525 21.7778 249.864 18.6667C248.305 24.8889 244.405 28 238.165 28C228.806 28 227.636 21 222.957 19.8333C219.837 19.0556 217.107 20.2222 214.767 23.3333Z" fill="#44A8B3"/>
<defs>
<linearGradient id="paint0_linear_877_271" x1="119.723" y1="18.1225" x2="125.245" y2="24.9669" gradientUnits="userSpaceOnUse">
<stop stop-color="white"/>
<stop offset="1" stop-color="white" stop-opacity="0"/>
</linearGradient>
<linearGradient id="paint1_linear_877_271" x1="121.59" y1="8.40027" x2="121.558" y2="16.6253" gradientUnits="userSpaceOnUse">
<stop stop-color="white"/>
<stop offset="1" stop-color="white" stop-opacity="0"/>
</linearGradient>
</defs>
</svg>
