<svg width="33" height="40" viewBox="0 0 33 40" fill="none" xmlns="http://www.w3.org/2000/svg">
<path d="M1.24128 36.86L0.00128092 3.84007C-0.0174322 3.31563 0.169498 2.80463 0.522204 2.41605C0.87491 2.02748 1.36548 1.79208 1.88928 1.76008L29.9692 0.00407997C30.2436 -0.0134271 30.5186 0.0255325 30.7773 0.11855C31.036 0.211567 31.2729 0.356664 31.4733 0.544869C31.6736 0.733074 31.8333 0.960386 31.9423 1.21275C32.0514 1.46511 32.1075 1.73716 32.1072 2.01208V37.99C32.1069 38.2616 32.0517 38.5304 31.9447 38.7801C31.8378 39.0298 31.6814 39.2552 31.485 39.4429C31.2886 39.6305 31.0562 39.7764 30.8019 39.8718C30.5476 39.9672 30.2766 40.0101 30.0052 39.998L3.16127 38.792C2.65697 38.7693 2.17964 38.5578 1.82398 38.1996C1.46833 37.8413 1.26034 37.3644 1.24128 36.86Z" fill="#FF4785"/>
<path fill-rule="evenodd" clip-rule="evenodd" d="M27.7614 0.14209L23.8974 0.382089L23.7094 4.91608C23.7071 4.97281 23.721 5.02903 23.7493 5.0782C23.7777 5.12738 23.8195 5.16749 23.8697 5.19388C23.92 5.22027 23.9767 5.23186 24.0333 5.22729C24.0899 5.22272 24.144 5.20219 24.1894 5.16808L25.9494 3.83208L27.4374 5.00408C27.4823 5.03964 27.5365 5.06159 27.5935 5.06734C27.6505 5.07308 27.708 5.06239 27.7591 5.03651C27.8102 5.01064 27.8528 4.97067 27.882 4.92133C27.9111 4.87198 27.9255 4.81534 27.9234 4.75808L27.7614 0.14209ZM24.7534 15.3221C24.0474 15.8721 18.7754 16.2461 18.7754 15.4641C18.8874 12.4781 17.5514 12.3481 16.8074 12.3481C16.1034 12.3481 14.9154 12.5601 14.9154 14.1601C14.9154 15.7901 16.6514 16.7101 18.6894 17.79C21.5834 19.324 25.0894 21.182 25.0894 25.854C25.0894 30.334 21.4494 32.806 16.8094 32.806C12.0195 32.806 7.83346 30.868 8.30546 24.15C8.49146 23.362 14.5814 23.55 14.5814 24.15C14.5054 26.922 15.1374 27.738 16.7334 27.738C17.9594 27.738 18.5154 27.062 18.5154 25.926C18.5154 24.204 16.7074 23.188 14.6254 22.02C11.8075 20.438 8.49146 18.576 8.49146 14.3021C8.49146 10.0381 11.4235 7.19407 16.6594 7.19407C21.8954 7.19407 24.7534 9.99407 24.7534 15.3221Z" fill="white"/>
</svg>
