<svg width="67" height="40" viewBox="0 0 67 40" fill="none" xmlns="http://www.w3.org/2000/svg">
<path d="M16.713 13.3333C18.9414 4.44444 24.5123 0 33.4259 0C46.7963 0 48.4676 10 55.1528 11.6667C59.6096 12.7778 63.5093 11.1111 66.8519 6.66667C64.6235 15.5556 59.0525 20 50.1389 20C36.7685 20 35.0972 10 28.412 8.33333C23.9552 7.22222 20.0556 8.88889 16.713 13.3333ZM0 33.3333C2.2284 24.4444 7.79938 20 16.713 20C30.0833 20 31.7546 30 38.4398 31.6667C42.8966 32.7778 46.7963 31.1111 50.1389 26.6667C47.9105 35.5556 42.3395 40 33.4259 40C20.0556 40 18.3843 30 11.6991 28.3333C7.24228 27.2222 3.34259 28.8889 0 33.3333Z" fill="#44A8B3"/>
</svg>
