<svg width="92" height="92" viewBox="0 0 92 92" fill="none" xmlns="http://www.w3.org/2000/svg">
<rect width="91.6364" height="91" transform="translate(0.181824 0.5)" fill="white"/>
<path d="M46 17C33.7814 17 26.1453 23.4446 23.0903 36.3325C27.6727 29.8879 33.0183 27.4721 39.127 29.0827C42.6128 30.0016 45.1039 32.6701 47.8621 35.6228C52.3539 40.4326 57.5528 45.9994 68.9097 45.9994C81.1271 45.9994 88.7644 39.5548 91.8182 26.6657C87.2369 33.1102 81.8914 35.5273 75.7815 33.9167C72.2969 32.9978 69.8057 30.3293 67.0476 27.3766C62.5557 22.5668 57.3557 17 46 17V17ZM23.0903 45.9994C10.8729 45.9994 3.23561 52.444 0.181824 65.3331C4.76307 58.8886 10.1086 56.4715 16.2185 58.0833C19.7031 59.0034 22.1943 61.6707 24.9524 64.6222C29.4443 69.432 34.6443 75 46 75C58.2186 75 65.8547 68.5554 68.9097 55.6663C64.3273 62.1108 58.9817 64.5279 52.873 62.9161C49.3872 61.9984 46.8961 59.3287 44.1379 56.3772C39.6461 51.5674 34.4472 45.9994 23.0903 45.9994V45.9994Z" fill="#06B6D4"/>
</svg>
