<svg width="20" height="16" viewBox="0 0 20 16" fill="none" xmlns="http://www.w3.org/2000/svg">
<path d="M17.7337 3.98316C17.7457 4.15675 17.7457 4.33034 17.7457 4.50553C17.7457 9.84359 13.682 16 6.25125 16V15.9968C4.05619 16 1.90672 15.3712 0.0588379 14.1857C0.378018 14.2241 0.698798 14.2433 1.02038 14.2441C2.83946 14.2457 4.60655 13.6353 6.03766 12.5114C4.30897 12.4786 2.79307 11.3515 2.2635 9.706C2.86906 9.82279 3.49302 9.79879 4.08738 9.6364C2.2027 9.25563 0.846788 7.59973 0.846788 5.67665C0.846788 5.65905 0.846788 5.64225 0.846788 5.62546C1.40835 5.93824 2.03711 6.11182 2.68027 6.13102C0.905185 4.9447 0.358019 2.58325 1.42995 0.736963C3.48102 3.2608 6.50723 4.79511 9.75583 4.9575C9.43025 3.55439 9.87502 2.08408 10.9246 1.09774C12.5517 -0.431763 15.1107 -0.353368 16.6402 1.27293C17.5449 1.09454 18.4121 0.762562 19.2056 0.292192C18.9041 1.22733 18.2729 2.02168 17.4297 2.52645C18.2305 2.43206 19.0128 2.21767 19.7496 1.89049C19.2072 2.70324 18.5241 3.41119 17.7337 3.98316Z" fill="#CCCCCC"/>
</svg>
