<svg width="92" height="96" viewBox="0 0 92 96" fill="none" xmlns="http://www.w3.org/2000/svg">
<g id="Group 44">
<path id="Vector" d="M0.475555 0.307617H91.5244V95.6921H0.475555V0.307617Z" fill="#017ACB"/>
<path id="Vector_2" d="M44.1933 35.6298H48.5608V43.5289H36.7529V78.6721L36.4399 78.7615C36.0131 78.8808 30.3937 78.8807 29.1844 78.7466L28.217 78.6572V43.5289H16.4091V35.6298L20.1507 35.5851C22.1993 35.5553 27.463 35.5553 31.8448 35.5851C36.2265 35.6149 41.7748 35.6298 44.1933 35.6298ZM77.5258 74.9461C75.7901 76.8687 73.9265 77.9418 70.8251 78.8211C69.4736 79.2086 69.246 79.2235 66.2016 79.2086C63.1571 79.1937 62.9153 79.1937 61.4357 78.7913C57.6088 77.763 54.5217 75.7509 52.4162 72.9043C51.8187 72.0995 50.837 70.4303 50.837 70.2216C50.837 70.162 50.9793 70.0279 51.1642 69.9385C51.3492 69.849 51.7333 69.5957 52.0463 69.4019C52.3593 69.2082 52.9283 68.8505 53.3124 68.6418C53.6965 68.4332 54.8062 67.7476 55.7736 67.1365C56.741 66.5255 57.623 66.0336 57.7226 66.0336C57.8222 66.0336 58.0071 66.2423 58.1494 66.4957C59.003 68.001 60.9947 69.9235 62.4031 70.5793C63.2709 70.9668 65.1915 71.399 66.1162 71.399C66.9698 71.399 68.5347 71.0115 69.374 70.6091C70.2703 70.1769 70.7256 69.7447 71.2662 68.8803C71.636 68.2692 71.6787 68.1053 71.6645 66.9428C71.6645 65.8697 71.6076 65.5716 71.3231 65.0798C70.5264 63.7087 69.4452 62.9933 65.0634 60.9663C60.5394 58.8649 58.5051 57.613 56.8548 55.9289C55.6313 54.6769 55.3895 54.3341 54.6213 52.7692C53.6254 50.7572 53.4974 50.1015 53.4831 47.1058C53.4689 45.0043 53.5116 44.3188 53.725 43.6034C54.0237 42.5303 54.9911 40.4587 55.4322 39.937C56.3426 38.8193 56.6699 38.4765 57.31 37.925C59.2448 36.2558 62.2608 35.1529 65.1488 35.0486C65.476 35.0486 66.5572 35.1082 67.5673 35.1827C70.4695 35.4361 72.4469 36.1813 74.3533 37.776C75.7901 38.9683 77.9668 41.7702 77.7534 42.1428C77.6111 42.3664 71.9348 46.3308 71.5649 46.45C71.3373 46.5245 71.1808 46.4351 70.8678 46.0476C68.933 43.6183 68.1506 43.0967 66.2727 42.9774C64.9354 42.888 64.2241 43.0519 63.3278 43.6779C62.3889 44.3337 61.9336 45.3322 61.9336 46.7183C61.9479 48.7452 62.6876 49.699 65.4191 51.1149C67.1832 52.024 68.6912 52.7692 68.805 52.7692C68.9757 52.7692 72.6319 54.6769 73.5851 55.2731C78.0237 58.0005 79.8304 60.8024 80.2999 65.6312C80.6414 69.2678 79.6597 72.5913 77.5258 74.9461Z" fill="white"/>
</g>
</svg>
