<svg width="40" height="40" viewBox="0 0 40 40" fill="none" xmlns="http://www.w3.org/2000/svg">
<path d="M36.0938 0H3.90625C1.74889 0 0 1.74889 0 3.90625V36.0938C0 38.2511 1.74889 40 3.90625 40H36.0938C38.2511 40 40 38.2511 40 36.0938V3.90625C40 1.74889 38.2511 0 36.0938 0Z" fill="#3178C6"/>
<path fill-rule="evenodd" clip-rule="evenodd" d="M24.7609 31.83V35.741C25.3966 36.067 26.1486 36.3113 27.0167 36.4743C27.8848 36.6373 28.7998 36.7188 29.7616 36.7188C30.6991 36.7188 31.5895 36.6291 32.4332 36.4498C33.2769 36.2706 34.0166 35.9752 34.6524 35.5638C35.2882 35.1523 35.7916 34.6145 36.1624 33.9505C36.5333 33.2864 36.7188 32.4655 36.7188 31.4878C36.7188 30.7789 36.6128 30.1577 36.4009 29.624C36.1889 29.0903 35.8833 28.6157 35.4838 28.2002C35.0845 27.7846 34.6055 27.4118 34.0472 27.0818C33.4888 26.7518 32.8591 26.4402 32.1581 26.1469C31.6446 25.935 31.1841 25.7293 30.7765 25.5297C30.3689 25.33 30.0225 25.1263 29.7372 24.9186C29.4519 24.7108 29.2318 24.4908 29.077 24.2586C28.9221 24.0263 28.8446 23.7636 28.8446 23.4702C28.8446 23.2014 28.9139 22.959 29.0525 22.743C29.1911 22.5271 29.3867 22.3418 29.6394 22.187C29.8921 22.0322 30.2018 21.912 30.5686 21.8264C30.9355 21.7409 31.343 21.6981 31.7913 21.6981C32.1173 21.6981 32.4617 21.7226 32.8245 21.7714C33.1872 21.8203 33.552 21.8957 33.9188 21.9975C34.2856 22.0994 34.6422 22.2277 34.9887 22.3825C35.3351 22.5373 35.655 22.7166 35.9484 22.9203V19.2659C35.3534 19.0378 34.7034 18.8687 33.9983 18.7587C33.2932 18.6487 32.4841 18.5938 31.5712 18.5938C30.642 18.5938 29.7616 18.6936 28.9302 18.8932C28.0988 19.0928 27.3673 19.4045 26.7355 19.8281C26.1037 20.2519 25.6045 20.7916 25.2377 21.4476C24.8709 22.1034 24.6875 22.8877 24.6875 23.8002C24.6875 24.9654 25.0237 25.9595 25.6962 26.7824C26.3687 27.6053 27.3896 28.302 28.7591 28.8723C29.297 29.0923 29.7984 29.3082 30.263 29.5201C30.7276 29.732 31.1291 29.952 31.4673 30.1801C31.8055 30.4082 32.0725 30.6567 32.2682 30.9256C32.4638 31.1945 32.5616 31.5 32.5616 31.8423C32.5616 32.0948 32.5005 32.3291 32.3782 32.545C32.2559 32.7609 32.0705 32.9483 31.8219 33.1072C31.5733 33.2661 31.2635 33.3903 30.8927 33.4799C30.5217 33.5696 30.0877 33.6144 29.5905 33.6144C28.7427 33.6144 27.9032 33.4657 27.0717 33.1683C26.2403 32.8709 25.47 32.4248 24.7609 31.83ZM18.1859 22.1939H23.2031V18.9844H9.21875V22.1939H14.2114V36.4844H18.1859V22.1939Z" fill="white"/>
</svg>
