<svg width="48" height="72" viewBox="0 0 48 72" fill="none" xmlns="http://www.w3.org/2000/svg">
<path d="M24.5 36C24.5 29.6488 29.6488 24.5 36 24.5C42.3512 24.5 47.5 29.6488 47.5 36C47.5 42.3512 42.3512 47.5 36 47.5C29.6488 47.5 24.5 42.3512 24.5 36Z" fill="white" stroke="black"/>
<path d="M0.5 60C0.5 53.6488 5.64873 48.5 12 48.5H23.5V60C23.5 66.3512 18.3512 71.5 12 71.5C5.64873 71.5 0.5 66.3512 0.5 60Z" fill="white" stroke="black"/>
<path d="M36 23.5H24.5V0.5H36C42.3512 0.5 47.5 5.64873 47.5 12C47.5 18.3512 42.3512 23.5 36 23.5Z" fill="white" stroke="black"/>
<path d="M12 23.5C5.64873 23.5 0.5 18.3512 0.5 12C0.5 5.64872 5.64872 0.5 12 0.5H23.5V23.5H12Z" fill="white" stroke="black"/>
<path d="M12 47.5C5.64873 47.5 0.5 42.3512 0.5 36C0.5 29.6488 5.64873 24.5 12 24.5H23.5V47.5H12Z" fill="white" stroke="black"/>
</svg>
