<svg width="26" height="24" viewBox="0 0 26 24" fill="none" xmlns="http://www.w3.org/2000/svg">
<path d="M12.8399 0C6.04559 0 0.536133 5.5085 0.536133 12.3038C0.536133 17.74 4.06153 22.3519 8.95023 23.9789C9.56511 24.0927 9.79091 23.712 9.79091 23.387C9.79091 23.0936 9.77942 22.1243 9.77421 21.0962C6.3512 21.8405 5.62892 19.6445 5.62892 19.6445C5.06924 18.2224 4.26282 17.8443 4.26282 17.8443C3.14655 17.0806 4.34697 17.0963 4.34697 17.0963C5.58251 17.1831 6.23309 18.3642 6.23309 18.3642C7.33044 20.2452 9.11138 19.7014 9.81349 19.3871C9.92388 18.5918 10.2428 18.0491 10.5946 17.7418C7.86185 17.4306 4.98896 16.3756 4.98896 11.6612C4.98896 10.318 5.46961 9.22033 6.25673 8.35871C6.12897 8.04876 5.70786 6.7974 6.3759 5.10263C6.3759 5.10263 7.40909 4.77194 9.76032 6.36384C10.7417 6.09114 11.7943 5.9545 12.8399 5.94987C13.8855 5.9545 14.9389 6.09114 15.9222 6.36384C18.2706 4.77194 19.3024 5.10263 19.3024 5.10263C19.972 6.7974 19.5507 8.04876 19.423 8.35871C20.2118 9.22033 20.6892 10.3179 20.6892 11.6612C20.6892 16.3868 17.8109 17.4274 15.0712 17.732C15.5125 18.1138 15.9057 18.8626 15.9057 20.0105C15.9057 21.6567 15.8914 22.9817 15.8914 23.387C15.8914 23.7144 16.1129 24.098 16.7366 23.9772C21.6226 22.3485 25.1436 17.7382 25.1436 12.3038C25.1436 5.5085 19.6349 0 12.8399 0Z" fill="#CCCCCC"/>
<path d="M5.14448 17.527C5.11746 17.5881 5.02116 17.6064 4.93364 17.5645C4.84438 17.5244 4.7942 17.441 4.82315 17.3796C4.84969 17.3167 4.94599 17.2992 5.03505 17.3414C5.12451 17.3815 5.17546 17.4656 5.14448 17.527ZM5.74971 18.067C5.69104 18.1214 5.5763 18.0961 5.49843 18.0102C5.41795 17.9244 5.4029 17.8097 5.46244 17.7544C5.52294 17.7001 5.6342 17.7255 5.71487 17.8114C5.79535 17.8981 5.81098 18.0121 5.74961 18.0671L5.74971 18.067ZM6.16493 18.7579C6.08947 18.8103 5.96615 18.7612 5.89001 18.6518C5.81465 18.5424 5.81465 18.4112 5.89166 18.3586C5.96808 18.306 6.08947 18.3533 6.16667 18.4619C6.24194 18.5731 6.24194 18.7044 6.16484 18.758L6.16493 18.7579ZM6.86704 19.5582C6.79959 19.6325 6.656 19.6126 6.55082 19.5111C6.44333 19.4119 6.41332 19.2711 6.48096 19.1967C6.54918 19.1222 6.69364 19.1431 6.79959 19.2438C6.90641 19.3428 6.93903 19.4846 6.86714 19.5582H6.86704ZM7.7745 19.8283C7.74487 19.9246 7.60649 19.9685 7.46715 19.9275C7.32801 19.8854 7.23691 19.7725 7.26499 19.6751C7.29394 19.5781 7.4329 19.5325 7.5733 19.5763C7.71226 19.6183 7.80354 19.7303 7.77459 19.8283H7.7745ZM8.80739 19.9429C8.81087 20.0444 8.69266 20.1285 8.54637 20.1304C8.39921 20.1336 8.28023 20.0514 8.27869 19.9517C8.27869 19.8492 8.3942 19.7658 8.54126 19.7634C8.68755 19.7605 8.80739 19.842 8.80739 19.9429ZM9.82196 19.904C9.83952 20.003 9.73781 20.1047 9.59259 20.1317C9.44977 20.1578 9.31757 20.0967 9.29933 19.9986C9.28158 19.897 9.38522 19.7954 9.52774 19.7691C9.67326 19.7438 9.80343 19.8033 9.82196 19.904Z" fill="#CCCCCC"/>
</svg>
