<svg width="74" height="72" viewBox="0 0 74 72" fill="none" xmlns="http://www.w3.org/2000/svg">
<path d="M36.9113 0C16.5284 0 0 16.5255 0 36.9113C0 53.22 10.5762 67.0558 25.2423 71.9366C27.0869 72.2782 27.7643 71.1359 27.7643 70.1609C27.7643 69.2808 27.7299 66.3729 27.7142 63.2887C17.4452 65.5215 15.2784 58.9336 15.2784 58.9336C13.5993 54.6671 11.1801 53.5329 11.1801 53.5329C7.83126 51.2419 11.4325 51.2888 11.4325 51.2888C15.1391 51.5493 17.0909 55.0927 17.0909 55.0927C20.3829 60.7357 25.7257 59.1041 27.8321 58.1613C28.1632 55.7753 29.12 54.1472 30.1755 53.2255C21.9771 52.2919 13.3585 49.1269 13.3585 34.9836C13.3585 30.9539 14.8004 27.661 17.1618 25.0761C16.7785 24.1463 15.5152 20.3922 17.5193 15.3079C17.5193 15.3079 20.6189 14.3158 27.6726 19.0915C30.6167 18.2734 33.7744 17.8635 36.9113 17.8496C40.0482 17.8635 43.2083 18.2734 46.1582 19.0915C53.2035 14.3158 56.2987 15.3079 56.2987 15.3079C58.3077 20.3922 57.0438 24.1463 56.6605 25.0761C59.0271 27.661 60.4592 30.9536 60.4592 34.9836C60.4592 49.1605 51.8243 52.2823 43.6052 53.1959C44.929 54.3414 46.1087 56.5879 46.1087 60.0314C46.1087 64.97 46.0658 68.945 46.0658 70.1609C46.0658 71.1431 46.7302 72.2941 48.6015 71.9317C63.2594 67.0454 73.8223 53.2145 73.8223 36.9113C73.8223 16.5255 57.2963 0 36.9113 0Z" fill="white"/>
<path d="M13.8246 52.581C13.7435 52.7642 13.4546 52.8192 13.192 52.6936C12.9242 52.5732 12.7737 52.3231 12.8606 52.1389C12.9402 51.9502 13.2291 51.8975 13.4963 52.0243C13.7646 52.1444 13.9175 52.3969 13.8246 52.581ZM15.6402 54.201C15.4642 54.3642 15.12 54.2884 14.8864 54.0305C14.645 53.7731 14.5998 53.4292 14.7784 53.2633C14.9599 53.1003 15.2937 53.1765 15.5357 53.4341C15.7772 53.6944 15.8241 54.0363 15.6399 54.2013L15.6402 54.201ZM16.8859 56.2737C16.6595 56.4309 16.2896 56.2836 16.0612 55.9553C15.8351 55.6273 15.8351 55.2336 16.0661 55.0758C16.2954 54.918 16.6595 55.0599 16.8911 55.3856C17.1169 55.7194 17.1169 56.1131 16.8856 56.274L16.8859 56.2737ZM18.9922 58.6745C18.7899 58.8974 18.3591 58.8377 18.0436 58.5332C17.7211 58.2356 17.6311 57.8132 17.834 57.59C18.0387 57.3665 18.472 57.4294 18.7899 57.7313C19.1104 58.0283 19.2082 58.4539 18.9925 58.6745H18.9922ZM21.7146 59.485C21.6257 59.7739 21.2106 59.9054 20.7926 59.7826C20.3751 59.6561 20.1019 59.3174 20.1861 59.0253C20.2729 58.7344 20.6898 58.5975 21.111 58.7289C21.5279 58.8548 21.8017 59.1909 21.7149 59.485H21.7146ZM24.8133 59.8286C24.8237 60.1332 24.4691 60.3856 24.0302 60.3911C23.5888 60.4007 23.2318 60.1543 23.2272 59.855C23.2272 59.5476 23.5737 59.2974 24.0149 59.2902C24.4538 59.2815 24.8133 59.5261 24.8133 59.8286ZM27.857 59.712C27.9097 60.009 27.6046 60.3141 27.1689 60.3952C26.7404 60.4733 26.3438 60.2901 26.2891 59.9957C26.2358 59.6911 26.5468 59.3863 26.9743 59.3073C27.4109 59.2314 27.8014 59.41 27.857 59.712Z" fill="white"/>
</svg>
