<svg width="65" height="72" viewBox="0 0 65 72" fill="none" xmlns="http://www.w3.org/2000/svg">
<path fill-rule="evenodd" clip-rule="evenodd" d="M38.1912 8.25095L52.996 16.799C53.4235 16.3468 53.914 15.9586 54.4523 15.6466C57.5226 13.8814 61.439 14.9295 63.2224 18C64.9876 21.0705 63.9396 24.9866 60.869 26.7701C60.3346 27.0778 59.7588 27.3071 59.1591 27.4509V44.5533C59.7522 44.6974 60.3218 44.9251 60.8507 45.2297C63.9396 47.0131 64.9876 50.9295 63.2041 54C61.439 57.0703 57.5044 58.1183 54.4338 56.3534C53.839 56.0121 53.3031 55.5771 52.8469 55.0651L38.1322 63.5606C38.3477 64.2131 38.4571 64.8959 38.4563 65.5831C38.4563 69.1132 35.5883 72 32.0396 72C28.491 72 25.623 69.1315 25.623 65.5831C25.623 64.9523 25.7136 64.343 25.8825 63.7676L11.0818 55.222C10.659 55.6653 10.1754 56.0462 9.64548 56.3534C6.55666 58.1183 2.64033 57.0703 0.875146 54C-0.889785 50.9295 0.15826 47.0131 3.22855 45.2297C3.75748 44.9251 4.32705 44.6972 4.92014 44.5531V27.4509C4.3205 27.3071 3.74465 27.0778 3.21028 26.7701C0.139737 25.0052 -0.908307 21.0705 0.856873 18C2.62205 14.9295 6.55641 13.8814 9.62696 15.6466C10.1624 15.957 10.6505 16.3426 11.0762 16.7918L25.8853 8.24144C25.7107 7.64893 25.6224 7.03437 25.623 6.41668C25.623 2.86855 28.491 0 32.0396 0C35.5883 0 38.4563 2.8683 38.4563 6.41668C38.4563 7.05447 38.3637 7.66998 38.1912 8.25095ZM36.6488 10.8847L51.4889 19.4528C51.2526 20.2788 51.1848 21.144 51.2896 21.9967C51.3944 22.8495 51.6697 23.6724 52.0989 24.4167C53.0023 25.9881 54.4739 27.0299 56.1071 27.4359V44.5596C56.0238 44.5799 55.9409 44.6021 55.8586 44.6257L36.4764 11.0562C36.535 11.0001 36.5925 10.943 36.6488 10.885V10.8847ZM27.6069 11.0599L8.22498 44.6289C8.14117 44.6047 8.05688 44.5821 7.97216 44.5613V27.4359C9.60543 27.0299 11.077 25.9881 11.9804 24.4167C12.4105 23.671 12.686 22.8463 12.7903 21.9918C12.8947 21.1373 12.8259 20.2706 12.5879 19.4433L27.4237 10.8777C27.4835 10.9395 27.5446 11.0003 27.6069 11.0597V11.0599ZM33.8326 12.5806L53.21 46.142C52.7662 46.5656 52.3857 47.0509 52.0804 47.5831C51.7759 48.112 51.5481 48.6816 51.4041 49.2747H12.6757C12.5315 48.6815 12.3036 48.112 11.9989 47.5831C11.6925 47.0546 11.3128 46.5722 10.871 46.1503L30.2522 12.5821C30.8332 12.7494 31.435 12.834 32.0396 12.8334C32.6622 12.8334 33.2637 12.7453 33.8326 12.5806ZM36.785 61.2602L51.5287 52.7477C51.4845 52.6087 51.445 52.4683 51.4103 52.3267H12.6675C12.6469 52.41 12.6247 52.4926 12.6009 52.575L27.4167 61.1293C28.015 60.5072 28.733 60.0126 29.5275 59.6752C30.322 59.3379 31.1765 59.1648 32.0396 59.1664C32.933 59.1648 33.8167 59.3503 34.634 59.7109C35.4513 60.0716 36.184 60.5993 36.785 61.2602Z" fill="white"/>
</svg>
