<svg width="43" height="48" viewBox="0 0 43 48" fill="none" xmlns="http://www.w3.org/2000/svg">
<path fill-rule="evenodd" clip-rule="evenodd" d="M25.4608 5.50063L35.3307 11.1993C35.6156 10.8978 35.9426 10.6391 36.3016 10.4311C38.3484 9.25427 40.9593 9.95297 42.1483 12C43.3251 14.047 42.6264 16.6578 40.5793 17.8467C40.2231 18.0519 39.8392 18.2047 39.4394 18.3006V29.7022C39.8348 29.7983 40.2145 29.9501 40.5672 30.1531C42.6264 31.3421 43.3251 33.953 42.1361 36C40.9593 38.0469 38.3362 38.7456 36.2892 37.5689C35.8926 37.3414 35.5354 37.0514 35.2312 36.71L25.4214 42.3737C25.5651 42.8087 25.6381 43.2639 25.6376 43.722C25.6376 46.0755 23.7255 48 21.3598 48C18.994 48 17.082 46.0876 17.082 43.722C17.082 43.3015 17.1424 42.8954 17.255 42.5117L7.38784 36.8147C7.10601 37.1102 6.78362 37.3642 6.43032 37.5689C4.37111 38.7456 1.76022 38.0469 0.583431 36C-0.59319 33.953 0.105507 31.3421 2.15237 30.1531C2.50499 29.95 2.8847 29.7982 3.2801 29.702V18.3006C2.88033 18.2047 2.49644 18.0519 2.14019 17.8467C0.0931581 16.6701 -0.605538 14.047 0.571249 12C1.74804 9.95297 4.37094 9.25427 6.41797 10.4311C6.77493 10.638 7.10032 10.8951 7.38417 11.1945L17.2569 5.49429C17.1405 5.09929 17.0816 4.68958 17.082 4.27779C17.082 1.91236 18.994 0 21.3598 0C23.7255 0 25.6376 1.9122 25.6376 4.27779C25.6376 4.70298 25.5758 5.11332 25.4608 5.50063ZM24.4326 7.25647L34.326 12.9685C34.1684 13.5192 34.1232 14.096 34.1931 14.6645C34.263 15.233 34.4464 15.7816 34.7326 16.2778C35.3349 17.3254 36.3159 18.0199 37.4048 18.2906V29.7064C37.3492 29.7199 37.294 29.7348 37.2391 29.7504L24.3176 7.37078C24.3566 7.3334 24.395 7.29535 24.4326 7.25664V7.25647ZM18.4046 7.37328L5.48332 29.7526C5.42745 29.7365 5.37125 29.7214 5.31478 29.7076V18.2906C6.40362 18.0199 7.38467 17.3254 7.98691 16.2778C8.27366 15.7807 8.45732 15.2309 8.5269 14.6612C8.59648 14.0916 8.55057 13.5137 8.39191 12.9622L18.2825 7.2518C18.3223 7.29302 18.3631 7.33356 18.4046 7.37311V7.37328ZM22.5551 8.38703L35.4734 30.7614C35.1775 31.0437 34.9238 31.3673 34.7203 31.722C34.5172 32.0747 34.3654 32.4544 34.2694 32.8498H8.45048C8.35432 32.4544 8.20239 32.0747 7.99926 31.722C7.79501 31.3697 7.54185 31.0481 7.24733 30.7669L20.1681 8.38803C20.5555 8.49958 20.9567 8.55598 21.3598 8.55558C21.7748 8.55558 22.1758 8.49684 22.5551 8.38703ZM24.5233 40.8401L34.3525 35.1651C34.323 35.0725 34.2967 34.9789 34.2736 34.8845H8.44498C8.43129 34.94 8.41644 34.9951 8.40059 35.05L18.2778 40.7529C18.6767 40.3381 19.1553 40.0084 19.685 39.7835C20.2146 39.5586 20.7843 39.4432 21.3598 39.4443C21.9553 39.4432 22.5445 39.5669 23.0893 39.8073C23.6342 40.0477 24.1227 40.3995 24.5233 40.8401Z" fill="#E535AB"/>
</svg>
