<svg width="72" height="72" viewBox="0 0 72 72" fill="none" xmlns="http://www.w3.org/2000/svg">
<path d="M0 8C0 3.58172 3.58172 0 8 0H64C68.4183 0 72 3.58172 72 8V64C72 68.4183 68.4183 72 64 72H8C3.58172 72 0 68.4183 0 64V8Z" fill="white"/>
<path d="M18.9314 60.1687L19.3862 59.8935C22.1525 58.2192 25.5571 60.3135 28.7907 60.3135C31.0139 60.3135 32.416 59.4439 32.416 56.061V36.4383C32.416 34.57 33.9306 33.0553 35.799 33.0553C37.6674 33.0553 39.182 34.57 39.182 36.4383V56.1567C39.182 63.1646 35.0741 66.3545 29.0806 66.3545C23.668 66.3545 20.5261 63.5513 18.9312 60.1681M42.8571 59.4436C45.9214 57.6694 49.7248 59.3351 53.1695 60.1548C53.7373 60.2899 54.3566 60.3622 55.0361 60.3622C57.8398 60.3622 59.6275 58.9604 59.6275 57.0271C59.6275 54.7074 57.7909 53.8856 54.6977 52.5327L53.0066 51.8071C48.1249 49.7295 44.8869 47.1195 44.8869 41.6098C44.8869 36.535 48.7532 32.6683 54.7947 32.6683C58.0795 32.6683 60.6597 33.5422 62.6858 35.6985C63.8183 36.9039 63.3228 38.7813 61.9311 39.6751C60.4204 40.6452 58.5289 39.8945 56.9454 39.0483C56.3217 38.715 55.6198 38.5653 54.7945 38.5653C52.8128 38.5653 51.5562 39.8219 51.5562 41.465C51.5562 43.4948 52.8128 44.3169 55.7125 45.5735L57.4039 46.2983C63.1555 48.7634 66.3935 51.2764 66.3935 56.9306C66.3935 63.0208 61.6089 66.3553 55.1809 66.3553C48.8981 66.3553 44.8382 63.3589 42.8568 59.4439" fill="black"/>
</svg>
