<svg width="48" height="48" viewBox="0 0 48 48" fill="none" xmlns="http://www.w3.org/2000/svg">
<path d="M0 4C0 1.79086 1.79086 0 4 0H44C46.2091 0 48 1.79086 48 4V44C48 46.2091 46.2091 48 44 48H4C1.79086 48 0 46.2091 0 44V4Z" fill="#F7DF1E"/>
<path d="M12.621 40.1124L12.9241 39.9289C14.7684 38.8127 17.0381 40.2089 19.1938 40.2089C20.676 40.2089 21.6107 39.6292 21.6107 37.3739V24.2922C21.6107 23.0466 22.6204 22.0368 23.866 22.0368C25.1116 22.0368 26.1214 23.0466 26.1214 24.2922V37.4377C26.1214 42.1096 23.3827 44.2362 19.3871 44.2362C15.7787 44.2362 13.6841 42.3674 12.6208 40.112M28.5714 39.629L28.8669 39.4579C30.7454 38.3703 33.0497 39.3517 35.1176 40.0118C35.5828 40.1603 36.103 40.2414 36.6907 40.2414C38.5599 40.2414 39.7517 39.3069 39.7517 38.018C39.7517 36.4715 38.5273 35.9236 36.4652 35.0217L35.3377 34.538C32.0833 33.1529 29.9246 31.4129 29.9246 27.7398C29.9246 24.3566 32.5022 21.7788 36.5299 21.7788C38.7197 21.7788 40.4398 22.3614 41.7905 23.7989C42.5456 24.6025 42.2152 25.8541 41.2874 26.45C40.2803 27.0967 39.0193 26.5962 37.9636 26.0321C37.5478 25.8099 37.0799 25.7101 36.5297 25.7101C35.2085 25.7101 34.3708 26.5479 34.3708 27.6432C34.3708 28.9964 35.2085 29.5445 37.1417 30.3822L38.2693 30.8654C42.1037 32.5089 44.2624 34.1842 44.2624 37.9537C44.2624 42.0138 41.0726 44.2368 36.7873 44.2368C32.5987 44.2368 29.8922 42.2392 28.5712 39.6292" fill="black"/>
</svg>
