<svg width="24" height="24" viewBox="0 0 24 24" fill="none" xmlns="http://www.w3.org/2000/svg">
<path fill-rule="evenodd" clip-rule="evenodd" d="M22.2617 0H1.80914C0.830857 0 0 0.773714 0 1.72686V22.272C0 23.2263 0.545143 24 1.52343 24H21.976C22.9554 24 24 23.2263 24 22.272V1.72686C24 0.773714 23.2411 0 22.2617 0ZM9.14286 9.14286H12.3737V10.7897H12.4091C12.9017 9.90171 14.3566 9 16.1554 9C19.608 9 20.5714 10.8331 20.5714 14.2286V20.5714H17.1429V14.8537C17.1429 13.3337 16.536 12 15.1166 12C13.3931 12 12.5714 13.1669 12.5714 15.0823V20.5714H9.14286V9.14286ZM3.42857 20.5714H6.85714V9.14286H3.42857V20.5714ZM7.28571 5.14286C7.28571 6.32686 6.32686 7.28571 5.14286 7.28571C3.95886 7.28571 3 6.32686 3 5.14286C3 3.95886 3.95886 3 5.14286 3C6.32686 3 7.28571 3.95886 7.28571 5.14286Z" fill="#CCCCCC"/>
</svg>
