<svg width="73" height="72" viewBox="0 0 73 72" fill="none" xmlns="http://www.w3.org/2000/svg">
<path d="M66.5578 55.6871C62.6263 55.5876 59.5793 55.9868 57.0237 57.0841C56.2865 57.3832 55.1068 57.3835 55.0085 58.3314C55.4017 58.7305 55.4509 59.3791 55.795 59.9276C56.3853 60.9252 57.4166 62.2723 58.3505 62.971C59.3824 63.769 60.4148 64.567 61.4956 65.2655C63.4125 66.4629 65.5751 67.1611 67.4425 68.3585C68.5241 69.0564 69.6046 69.955 70.6859 70.7031C71.2266 71.1017 71.5704 71.7508 72.2587 72V71.8506C71.9144 71.4013 71.8161 70.753 71.4723 70.2541C70.9814 69.7552 70.4893 69.3061 69.9978 68.8072C68.5727 66.862 66.8036 65.1657 64.887 63.769C63.3144 62.6714 59.8739 61.1749 59.2352 59.3289C59.2352 59.3289 59.1858 59.2793 59.1369 59.2294C60.218 59.1297 61.4956 58.7305 62.528 58.4312C64.1989 57.9819 65.7223 58.0819 67.4425 57.6329C68.2287 57.4333 69.0151 57.1839 69.8012 56.9344V56.4857C68.9171 55.5876 68.2781 54.3905 67.3442 53.5424C64.8378 51.3468 62.0854 49.2021 59.2352 47.4063C57.7116 46.4084 55.7455 45.7598 54.1238 44.912C53.5346 44.6123 52.5513 44.4629 52.2075 43.964C51.3225 42.8667 50.831 41.4201 50.1923 40.1229C48.7675 37.3789 47.391 34.3361 46.1623 31.4429C45.2781 29.4972 44.7375 27.5514 43.6562 25.7558C38.5942 17.2751 33.0899 12.1368 24.6371 7.09807C22.8185 6.05063 20.6562 5.60161 18.3464 5.05309C17.1182 5.00291 15.8891 4.90341 14.6606 4.85323C13.8742 4.50399 13.0878 3.55634 12.3997 3.10731C9.59897 1.31121 2.3741 -2.57948 0.310054 2.55879C-1.01701 5.80118 2.27608 8.99367 3.40598 10.6404C4.24211 11.7876 5.32286 13.0845 5.91267 14.3817C6.25672 15.2293 6.35474 16.1279 6.6988 17.0257C7.48549 19.22 8.22218 21.665 9.25463 23.7106C9.79529 24.758 10.3848 25.8553 11.0729 26.8033C11.4661 27.3518 12.154 27.6016 12.3017 28.4993C11.6139 29.4972 11.5644 30.9939 11.1709 32.2409C9.4018 37.8781 10.0902 44.8621 12.5963 49.0025C13.3824 50.2492 15.2502 52.9938 17.7566 51.9458C19.9683 51.0481 19.4768 48.2045 20.1152 45.7102C20.2633 45.111 20.165 44.7124 20.4596 44.3133V44.4133C21.1477 45.8097 21.8355 47.1571 22.4745 48.5538C23.9981 50.9979 26.6517 53.5424 28.8632 55.2387C30.0431 56.1362 30.9767 57.6828 32.4512 58.2316V58.0816H32.3526C32.0577 57.6326 31.6154 57.4333 31.2224 57.0838C30.338 56.1863 29.3547 55.0887 28.6669 54.0909C26.6031 51.297 24.7843 48.2042 23.1626 45.0115C22.3764 43.4654 21.6881 41.7691 21.0494 40.2227C20.7542 39.6234 20.7542 38.726 20.263 38.4269C19.5257 39.5242 18.4447 40.4722 17.904 41.819C16.9707 43.964 16.8721 46.608 16.5281 49.3515C16.3315 49.4019 16.4295 49.3515 16.3312 49.4518C14.7589 49.0521 14.2183 47.4063 13.6282 46.0093C12.1537 42.4676 11.9079 36.7805 13.1861 32.6899C13.5302 31.6422 15.0047 28.3499 14.4149 27.3521C14.12 26.4042 13.1367 25.8553 12.5963 25.1073C11.9576 24.1593 11.2692 22.9625 10.8272 21.9145C9.64755 19.1208 9.05774 16.0278 7.78011 13.2342C7.1903 11.937 6.1587 10.5905 5.32286 9.39309C4.38928 8.0463 3.35711 7.09807 2.61985 5.50183C2.37438 4.9533 2.03005 4.05525 2.42325 3.45655C2.52155 3.05742 2.71787 2.90803 3.11136 2.80825C3.75032 2.25915 5.56889 2.95764 6.20729 3.25699C8.02586 4.00479 9.54925 4.70385 11.0729 5.75129C11.7608 6.2502 12.498 7.19814 13.3824 7.4476H14.4146C15.9874 7.79656 17.7563 7.54739 19.2308 7.99612C21.8358 8.844 24.1945 10.0913 26.3079 11.4384C32.7461 15.5788 38.0533 21.4654 41.6413 28.4993C42.2311 29.6463 42.4765 30.6946 43.0172 31.8914C44.0496 34.3361 45.3273 36.8304 46.3589 39.2249C47.391 41.5692 48.3738 43.964 49.8483 45.9098C50.5856 46.957 53.534 47.506 54.8611 48.0549C55.8441 48.5036 57.3678 48.903 58.2522 49.4515C59.923 50.4987 61.5939 51.6967 63.1667 52.8436C63.9531 53.4423 66.4101 54.6896 66.5578 55.6871Z" fill="white"/>
<path d="M16.4298 12.3362C15.5945 12.3362 15.005 12.4365 14.4152 12.5859V12.6857H14.5135C14.9069 13.484 15.5945 14.0328 16.0857 14.731C16.4792 15.529 16.823 16.3275 17.2165 17.1258C17.2653 17.0756 17.3145 17.026 17.3145 17.026C18.0029 16.5268 18.3466 15.7288 18.3466 14.5314C18.0517 14.1825 18.0026 13.8332 17.7568 13.484C17.4622 12.9848 16.823 12.7356 16.4298 12.3362Z" fill="white"/>
</svg>
