<svg width="49" height="48" viewBox="0 0 49 48" fill="none" xmlns="http://www.w3.org/2000/svg">
<path d="M44.3719 37.1248C41.7509 37.0584 39.7195 37.3245 38.0158 38.0561C37.5243 38.2554 36.7379 38.2556 36.6724 38.8876C36.9345 39.1537 36.9673 39.5861 37.1966 39.9518C37.5902 40.6168 38.2778 41.5148 38.9003 41.9807C39.5883 42.5127 40.2766 43.0447 40.9971 43.5103C42.275 44.3086 43.7167 44.7741 44.9617 45.5723C45.6828 46.0376 46.4031 46.6367 47.1239 47.1354C47.4844 47.4011 47.7136 47.8339 48.1725 48V47.9004C47.9429 47.6009 47.8774 47.1687 47.6482 46.8361C47.3209 46.5034 46.9929 46.2041 46.6652 45.8715C45.7151 44.5747 44.5357 43.4438 43.258 42.5127C42.2096 41.7809 39.9159 40.7833 39.4901 39.5526C39.4901 39.5526 39.4572 39.5196 39.4246 39.4863C40.1453 39.4198 40.9971 39.1537 41.6854 38.9541C42.7993 38.6546 43.8148 38.7213 44.9617 38.4219C45.4858 38.2889 46.0101 38.1226 46.5341 37.9563V37.6571C45.9447 37.0584 45.5187 36.2603 44.8962 35.6949C43.2252 34.2312 41.3903 32.8014 39.4901 31.6042C38.4744 30.939 37.1637 30.5066 36.0826 29.9413C35.6897 29.7416 35.0342 29.642 34.805 29.3093C34.215 28.5778 33.8873 27.6134 33.4616 26.7486C32.5117 24.9193 31.594 22.8907 30.7748 20.962C30.1854 19.6648 29.825 18.3676 29.1041 17.1706C25.7295 11.5167 22.0599 8.09123 16.4247 4.73205C15.2123 4.03376 13.7708 3.73441 12.2309 3.36873C11.4121 3.33527 10.5927 3.26894 9.77376 3.23549C9.24949 3.00266 8.72521 2.37089 8.26647 2.07154C6.39931 0.874141 1.58273 -1.71965 0.206703 1.70586C-0.678009 3.86745 1.51739 5.99578 2.27065 7.09359C2.82807 7.8584 3.54857 8.723 3.94178 9.58779C4.17115 10.1528 4.23649 10.7519 4.46586 11.3504C4.99033 12.8134 5.48146 14.4433 6.16975 15.807C6.53019 16.5053 6.92321 17.2369 7.38195 17.8689C7.64409 18.2345 8.10264 18.401 8.20113 18.9995C7.74258 19.6648 7.70962 20.6626 7.44729 21.4939C6.26787 25.2521 6.7268 29.908 8.39754 32.6683C8.92163 33.4995 10.1668 35.3292 11.8377 34.6306C13.3122 34.032 12.9846 32.1364 13.4102 30.4735C13.5088 30.074 13.4433 29.8083 13.6397 29.5422V29.6089C14.0985 30.5398 14.557 31.4381 14.983 32.3692C15.9988 33.9986 17.7678 35.6949 19.2421 36.8258C20.0287 37.4241 20.6511 38.4552 21.6341 38.8211V38.7211H21.5684C21.3718 38.4217 21.0769 38.2889 20.815 38.0559C20.2253 37.4576 19.5698 36.7258 19.1113 36.0606C17.7354 34.198 16.5228 32.1362 15.4417 30.0076C14.9176 28.9769 14.4587 27.8461 14.0329 26.8151C13.8361 26.4156 13.8361 25.8173 13.5086 25.6179C13.0171 26.3495 12.2965 26.9814 11.936 27.8793C11.3138 29.3093 11.2481 31.072 11.0187 32.901C10.8877 32.9346 10.953 32.901 10.8875 32.9679C9.83929 32.7014 9.47886 31.6042 9.08546 30.6729C8.10245 28.3117 7.93861 24.5203 8.79075 21.7933C9.02012 21.0948 10.0031 18.9 9.60993 18.2347C9.41332 17.6028 8.75779 17.2369 8.39754 16.7382C7.97176 16.1062 7.51283 15.3083 7.21811 14.6096C6.4317 12.7472 6.0385 10.6852 5.18674 8.82279C4.79353 7.958 4.1058 7.06033 3.54857 6.26206C2.92619 5.3642 2.23808 4.73205 1.74657 3.66788C1.58292 3.3022 1.35336 2.7035 1.6155 2.30437C1.68103 2.03828 1.81191 1.93869 2.07424 1.87217C2.50021 1.5061 3.7126 1.97176 4.13819 2.17132C5.35058 2.66986 6.36617 3.1359 7.38195 3.83419C7.8405 4.1668 8.33201 4.79876 8.92163 4.96507H9.60974C10.6583 5.19771 11.8375 5.03159 12.8205 5.33075C14.5572 5.896 16.1296 6.72753 17.5386 7.62558C21.8307 10.3859 25.3688 14.3103 27.7608 18.9995C28.154 19.7642 28.3177 20.463 28.6781 21.2609C29.3664 22.8907 30.2182 24.5536 30.9059 26.1499C31.594 27.7128 32.2492 29.3093 33.2322 30.6065C33.7237 31.3046 35.6894 31.6707 36.5741 32.0366C37.2294 32.3357 38.2452 32.602 38.8348 32.9677C39.9487 33.6658 41.0626 34.4644 42.1111 35.2291C42.6354 35.6282 44.2734 36.4597 44.3719 37.1248Z" fill="#53C1DE"/>
<path d="M10.9529 8.22412C10.396 8.22412 10.003 8.29103 9.6098 8.39062V8.45714H9.67534C9.93766 8.98932 10.396 9.35519 10.7235 9.82065C10.9858 10.3526 11.215 10.885 11.4773 11.4172C11.5099 11.3837 11.5427 11.3507 11.5427 11.3507C12.0016 11.0179 12.2308 10.4859 12.2308 9.68761C12.0342 9.45497 12.0014 9.22215 11.8376 8.98932C11.6412 8.65652 11.215 8.4904 10.9529 8.22412Z" fill="#53C1DE"/>
</svg>
