<svg width="72" height="72" viewBox="0 0 72 72" fill="none" xmlns="http://www.w3.org/2000/svg">
<mask id="mask0_764_290" style="mask-type:alpha" maskUnits="userSpaceOnUse" x="0" y="0" width="72" height="72">
<path d="M36 72C55.8823 72 72 55.8823 72 36C72 16.1178 55.8823 0 36 0C16.1178 0 0 16.1178 0 36C0 55.8823 16.1178 72 36 72Z" fill="black"/>
</mask>
<g mask="url(#mask0_764_290)">
<path d="M36 72C55.8823 72 72 55.8823 72 36C72 16.1178 55.8823 0 36 0C16.1178 0 0 16.1178 0 36C0 55.8823 16.1178 72 36 72Z" fill="white"/>
<path d="M59.8031 63.0077L27.6567 21.5997H21.5999V50.3877H26.4453V27.7532L55.9995 65.9377C57.3331 65.0453 58.6035 64.0657 59.8031 63.0077Z" fill="url(#paint0_linear_764_290)"/>
<path d="M50.8 21.5997H46V50.3997H50.8V21.5997Z" fill="url(#paint1_linear_764_290)"/>
</g>
<defs>
<linearGradient id="paint0_linear_764_290" x1="43.5999" y1="46.5997" x2="57.7999" y2="64.1997" gradientUnits="userSpaceOnUse">
<stop/>
<stop offset="1" stop-color="white" stop-opacity="0"/>
</linearGradient>
<linearGradient id="paint1_linear_764_290" x1="48.4" y1="21.5997" x2="48.3196" y2="42.7497" gradientUnits="userSpaceOnUse">
<stop/>
<stop offset="1" stop-opacity="0"/>
</linearGradient>
</defs>
</svg>
