<svg width="43" height="48" viewBox="0 0 43 48" fill="none" xmlns="http://www.w3.org/2000/svg">
<path d="M21.1723 48C20.5148 48 19.901 47.8236 19.3312 47.5149L13.5011 44.0311C12.6245 43.5461 13.0628 43.3698 13.3258 43.2816C14.5094 42.8846 14.7284 42.7964 15.9558 42.0909C16.0873 42.0027 16.2628 42.0467 16.3943 42.1349L20.8655 44.825C21.0408 44.9132 21.2598 44.9132 21.3914 44.825L38.882 34.6384C39.0561 34.5502 39.1455 34.3738 39.1455 34.1535V13.8245C39.1455 13.6039 39.0561 13.4276 38.882 13.3394L21.3914 3.19701C21.2161 3.10882 20.9968 3.10882 20.8655 3.19701L3.37532 13.3394C3.19982 13.4276 3.1123 13.6482 3.1123 13.8245V34.1535C3.1123 34.3299 3.19982 34.5502 3.37532 34.6384L8.1533 37.4165C10.7396 38.7395 12.3615 37.1961 12.3615 35.6527V15.5883C12.3615 15.3237 12.5805 15.0592 12.8875 15.0592H15.123C15.386 15.0592 15.649 15.2798 15.649 15.5883V35.6527C15.649 39.1363 13.7641 41.1648 10.4765 41.1648C9.46842 41.1648 8.67935 41.1648 6.44364 40.0623L1.84094 37.4165C0.701316 36.7552 0 35.5203 0 34.1975V13.8685C0 12.5457 0.701316 11.311 1.84094 10.6495L19.3312 0.463162C20.427 -0.154387 21.9174 -0.154387 23.0133 0.463162L40.5042 10.6495C41.6429 11.311 42.3439 12.5457 42.3439 13.8685V34.1975C42.3439 35.5203 41.6429 36.7552 40.5042 37.4165L23.0133 47.603C22.4872 47.8236 21.8299 48 21.1723 48Z" fill="#5FA04E"/>
<path d="M26.632 34.0894C18.997 34.0894 17.4268 30.5363 17.4268 27.5161C17.4268 27.2497 17.6447 26.9832 17.95 26.9832H20.2184C20.4802 26.9832 20.6984 27.1608 20.6984 27.4273C21.0473 29.7812 22.0507 30.9359 26.6753 30.9359C30.3393 30.9359 31.9103 30.0922 31.9103 28.0936C31.9103 26.9387 31.4725 26.0948 25.7585 25.5175C21.0037 25.0289 18.0374 23.963 18.0374 20.099C18.0374 16.5016 21.0037 14.3696 25.9767 14.3696C31.5614 14.3696 34.3089 16.3239 34.6577 20.5876C34.6577 20.7207 34.6144 20.8541 34.5278 20.9872C34.4388 21.076 34.3089 21.165 34.1766 21.165H31.8647C31.6481 21.165 31.4292 20.9872 31.3859 20.7652C30.8615 18.3225 29.5094 17.5229 25.9331 17.5229C21.9198 17.5229 21.4399 18.9443 21.4399 20.0101C21.4399 21.2982 22.0069 21.698 27.4163 22.4085C32.7812 23.1191 35.3121 24.1407 35.3121 27.9602C35.3121 31.8686 32.1269 34.0894 26.632 34.0894Z" fill="#5FA04E"/>
</svg>
