<svg width="64" height="72" viewBox="0 0 64 72" fill="none" xmlns="http://www.w3.org/2000/svg">
<path d="M31.7585 72C30.7721 72 29.8514 71.7354 28.9967 71.2723L20.2516 66.0466C18.9367 65.3192 19.5942 65.0546 19.9887 64.9224C21.7641 64.3269 22.0927 64.1946 23.9337 63.1364C24.131 63.0041 24.3942 63.0701 24.5915 63.2023L31.2983 67.2375C31.5612 67.3698 31.8898 67.3698 32.087 67.2375L58.323 51.9576C58.5842 51.8253 58.7182 51.5608 58.7182 51.2302V20.7368C58.7182 20.4059 58.5842 20.1413 58.323 20.0091L32.087 4.79551C31.8241 4.66323 31.4952 4.66323 31.2983 4.79551L5.06298 20.0091C4.79973 20.1413 4.66845 20.4722 4.66845 20.7368V51.2302C4.66845 51.4948 4.79973 51.8253 5.06298 51.9576L12.23 56.1247C16.1093 58.1093 18.5422 55.7942 18.5422 53.479V23.3825C18.5422 22.9856 18.8707 22.5888 19.3313 22.5888H22.6845C23.079 22.5888 23.4736 22.9196 23.4736 23.3825V53.479C23.4736 58.7044 20.6462 61.7472 15.7148 61.7472C14.2026 61.7472 13.019 61.7472 9.66546 60.0935L2.7614 56.1247C1.05197 55.1327 0 53.2804 0 51.2962V20.8028C0 18.8185 1.05197 16.9666 2.7614 15.9743L28.9967 0.694743C30.6405 -0.231581 32.8761 -0.231581 34.5199 0.694743L60.7562 15.9743C62.4643 16.9666 63.5159 18.8185 63.5159 20.8028V51.2962C63.5159 53.2804 62.4643 55.1327 60.7562 56.1247L34.5199 71.4046C33.7308 71.7354 32.7448 72 31.7585 72Z" fill="white"/>
<path d="M39.948 51.1338C28.4955 51.1338 26.1401 45.8042 26.1401 41.2739C26.1401 40.8743 26.4671 40.4746 26.9251 40.4746H30.3277C30.7203 40.4746 31.0476 40.741 31.0476 41.1407C31.5709 44.6715 33.076 46.4036 40.013 46.4036C45.509 46.4036 47.8654 45.138 47.8654 42.1401C47.8654 40.4078 47.2088 39.1419 38.6377 38.2761C31.5055 37.5431 27.0561 35.9443 27.0561 30.1482C27.0561 24.7521 31.5055 21.5542 38.965 21.5542C47.3421 21.5542 51.4633 24.4857 51.9866 30.8811C51.9866 31.0808 51.9216 31.2808 51.7917 31.4805C51.6583 31.6138 51.4633 31.7473 51.265 31.7473H47.797C47.4721 31.7473 47.1438 31.4805 47.0788 31.1476C46.2922 27.4835 44.2641 26.2841 38.8997 26.2841C32.8797 26.2841 32.1598 28.4162 32.1598 30.015C32.1598 31.947 33.0104 32.5467 41.1245 33.6126C49.1719 34.6784 52.9682 36.2108 52.9682 41.9401C52.9682 47.8027 48.1903 51.1338 39.948 51.1338Z" fill="white"/>
</svg>
