<svg width="56" height="48" viewBox="0 0 56 48" fill="none" xmlns="http://www.w3.org/2000/svg">
<path d="M32.638 23.9554C32.638 21.3072 30.4239 19.1602 27.6923 19.1602C24.9611 19.1602 22.7467 21.3072 22.7467 23.9554C22.7467 26.6038 24.9611 28.7507 27.6923 28.7507C30.4239 28.7507 32.638 26.6038 32.638 23.9554Z" fill="#53C1DE"/>
<path fill-rule="evenodd" clip-rule="evenodd" d="M43.7546 15.053C44.799 10.9381 46.1118 3.30735 41.4838 0.720293C36.8775 -1.85548 30.8832 3.08018 27.718 6.04279C24.562 3.1097 18.3993 -1.80486 13.7753 0.79041C9.17079 3.37482 10.5907 10.879 11.6583 15.0198C7.36303 16.2026 0 18.7503 0 23.9555C0 29.146 7.35537 31.9178 11.6252 33.0995C10.5537 37.2631 9.20485 44.6601 13.8153 47.2388C18.4566 49.8336 24.6 45.036 27.7946 42.041C30.9801 45.021 36.9168 49.85 41.5241 47.2641C46.1457 44.6701 44.942 37.1417 43.8744 32.9769C48.0135 31.7926 55.3846 29.0812 55.3846 23.9555C55.3846 18.8003 47.9821 16.2319 43.7546 15.053ZM43.2299 30.7698C42.5289 28.6183 41.5828 26.3304 40.4254 23.967C41.5302 21.6593 42.4396 19.4009 43.121 17.2632C46.2201 18.1344 53.0188 20.1255 53.0188 23.9555C53.0188 27.8215 46.4946 29.8314 43.2299 30.7698ZM40.3385 45.2788C36.9009 47.208 31.7946 42.59 29.4421 40.3955C31.0028 38.7404 32.5625 36.8164 34.0846 34.6798C36.7623 34.4496 39.2917 34.073 41.5857 33.5588C42.3371 36.5047 43.7911 43.3409 40.3385 45.2788ZM14.9975 45.2513C11.5596 43.3292 13.1309 36.7285 13.9192 33.6615C16.1877 34.1481 18.699 34.4981 21.3829 34.7092C22.915 36.7998 24.5199 38.7214 26.1371 40.4044C24.139 42.2784 18.4514 47.1822 14.9975 45.2513ZM2.36583 23.9555C2.36583 20.0751 9.12382 18.0984 12.2936 17.2294C12.9868 19.4151 13.8959 21.7004 14.993 24.0114C13.8817 26.3568 12.9596 28.6783 12.26 30.8898C9.23758 30.051 2.36583 27.8383 2.36583 23.9555ZM14.9607 2.77576C18.4126 0.838447 23.7687 5.55661 26.0601 7.68024C24.4512 9.35546 22.8611 11.2626 21.3421 13.3412C18.7374 13.5753 16.2438 13.9512 13.9515 14.4548C13.0915 11.1152 11.5125 4.71099 14.9607 2.77576ZM35.7772 15.8346C37.5443 16.0508 39.2374 16.3385 40.8271 16.6903C40.3499 18.1735 39.7551 19.7245 39.0545 21.3144C38.0389 19.4461 36.9487 17.6153 35.7772 15.8346ZM27.7187 9.31957C28.81 10.4658 29.9029 11.7458 30.9781 13.1345C28.7972 13.0344 26.6129 13.034 24.432 13.133C25.5081 11.7572 26.6105 10.4791 27.7187 9.31957ZM16.3505 21.3127C15.6615 19.7284 15.072 18.1706 14.5906 16.6662C16.1708 16.3233 17.856 16.0431 19.6117 15.8304C18.4368 17.6071 17.3485 19.4372 16.3505 21.3127ZM19.6621 32.2444C17.8484 32.0481 16.1377 31.7821 14.558 31.4487C15.047 29.9178 15.6494 28.3265 16.3532 26.7079C17.3649 28.603 18.4698 30.4508 19.6621 32.2444ZM27.7842 38.7535C26.6629 37.5803 25.5443 36.2826 24.4519 34.887C26.6452 34.9704 28.8426 34.9706 31.0357 34.8757C29.9572 36.2969 28.8681 37.5964 27.7842 38.7535ZM39.077 26.6256C39.8173 28.2617 40.4413 29.8444 40.937 31.3493C39.331 31.7047 37.5973 31.9909 35.7705 32.2034C36.9508 30.389 38.0583 28.5297 39.077 26.6256ZM32.7642 32.4814C29.4094 32.7138 26.0337 32.7113 22.6778 32.5004C20.7709 29.7997 19.0734 26.9594 17.6081 24.0107C19.0663 21.0681 20.7515 18.2334 22.6494 15.5369C26.0077 15.2908 29.3867 15.29 32.745 15.5383C34.6266 18.2346 36.3092 21.062 37.8013 23.978C36.327 26.9191 34.6329 29.7596 32.7642 32.4814ZM40.3021 2.70757C43.755 4.63853 42.218 11.4965 41.4637 14.4786C39.166 13.9645 36.6707 13.582 34.0584 13.3442C32.5364 11.2431 30.9596 9.33264 29.3767 7.67906C31.6975 5.50968 36.8826 0.795487 40.3021 2.70757Z" fill="#53C1DE"/>
</svg>
