<svg width="84" height="72" viewBox="0 0 84 72" fill="none" xmlns="http://www.w3.org/2000/svg">
<path d="M48.9571 35.9335C48.9571 31.9613 45.636 28.7407 41.5386 28.7407C37.4418 28.7407 34.1201 31.9613 34.1201 35.9335C34.1201 39.9063 37.4418 43.1266 41.5386 43.1266C45.636 43.1266 48.9571 39.9063 48.9571 35.9335Z" fill="white"/>
<path fill-rule="evenodd" clip-rule="evenodd" d="M65.6319 22.5795C67.1984 16.4071 69.1676 4.96102 62.2257 1.08044C55.3162 -2.78322 46.3248 4.62026 41.577 9.06419C36.843 4.66454 27.599 -2.70729 20.663 1.18561C13.7562 5.06223 15.8861 16.3185 17.4874 22.5296C11.0445 24.3039 0 28.1254 0 35.9333C0 43.719 11.0331 47.8767 17.4378 49.6493C15.8305 55.8947 13.8073 66.9902 20.7229 70.8582C27.6848 74.7504 36.9 67.554 41.6919 63.0615C46.4702 67.5316 55.3752 74.775 62.2861 70.8962C69.2186 67.0051 67.413 55.7125 65.8116 49.4654C72.0202 47.6889 83.0769 43.6217 83.0769 35.9333C83.0769 28.2005 71.9731 24.3479 65.6319 22.5795ZM64.8449 46.1548C63.7934 42.9275 62.3742 39.4956 60.6381 35.9504C62.2952 32.4889 63.6594 29.1013 64.6815 25.8948C69.3302 27.2016 79.5282 30.1882 79.5282 35.9333C79.5282 41.7323 69.742 44.7472 64.8449 46.1548ZM60.5077 67.9181C55.3514 70.812 47.692 63.885 44.1631 60.5933C46.5042 58.1106 48.8437 55.2246 51.1269 52.0197C55.1434 51.6744 58.9375 51.1095 62.3786 50.3382C63.5057 54.7571 65.6867 65.0113 60.5077 67.9181ZM22.4962 67.8769C17.3393 64.9938 19.6964 55.0927 20.8788 50.4922C24.2816 51.2222 28.0484 51.7472 32.0743 52.0638C34.3725 55.1996 36.7798 58.0821 39.2057 60.6066C36.2085 63.4176 27.6771 70.7732 22.4962 67.8769ZM3.54874 35.9333C3.54874 30.1126 13.6857 27.1476 18.4404 25.8441C19.4802 29.1226 20.8439 32.5506 22.4896 36.0172C20.8225 39.5352 19.4394 43.0175 18.39 46.3348C13.8564 45.0764 3.54874 41.7575 3.54874 35.9333ZM22.441 4.16365C27.6189 1.25767 35.653 8.33491 39.0902 11.5204C36.6768 14.0332 34.2917 16.894 32.0131 20.0118C28.106 20.363 24.3658 20.9268 20.9273 21.6822C19.6373 16.6727 17.2687 7.06649 22.441 4.16365ZM53.6657 23.752C56.3165 24.0762 58.8561 24.5077 61.2407 25.0355C60.5249 27.2603 59.6326 29.5867 58.5817 31.9716C57.0583 29.1691 55.4231 26.4229 53.6657 23.752ZM41.5781 13.9794C43.215 15.6987 44.8543 17.6187 46.4671 19.7017C43.1958 19.5516 39.9193 19.551 36.648 19.6995C38.2622 17.6358 39.9157 15.7186 41.5781 13.9794ZM24.5257 31.9691C23.4922 29.5926 22.6079 27.2559 21.8858 24.9992C24.2562 24.485 26.784 24.0646 29.4175 23.7456C27.6552 26.4107 26.0227 29.1558 24.5257 31.9691ZM29.4931 48.3666C26.7726 48.0722 24.2066 47.6731 21.8369 47.173C22.5704 44.8768 23.4742 42.4897 24.5297 40.0619C26.0474 42.9045 27.7048 45.6762 29.4931 48.3666ZM41.6764 58.1303C39.9943 56.3705 38.3165 54.424 36.6779 52.3304C39.9678 52.4556 43.264 52.4559 46.5535 52.3135C44.9358 54.4453 43.3022 56.3946 41.6764 58.1303ZM58.6155 39.9384C59.7259 42.3925 60.6619 44.7665 61.4055 47.024C58.9965 47.5571 56.3959 47.9863 53.6558 48.3051C55.4262 45.5835 57.0874 42.7946 58.6155 39.9384ZM49.1464 48.7221C44.1141 49.0708 39.0506 49.0669 34.0167 48.7506C31.1563 44.6995 28.61 40.4391 26.4121 36.0161C28.5995 31.6022 31.1273 27.35 33.974 23.3053C39.0115 22.9362 44.0801 22.935 49.1176 23.3075C51.94 27.352 54.4638 31.593 56.7019 35.967C54.4904 40.3787 51.9494 44.6394 49.1464 48.7221ZM60.4531 4.06135C65.6324 6.9578 63.327 17.2447 62.1955 21.718C58.7489 20.9467 55.0061 20.3729 51.0876 20.0163C48.8046 16.8647 46.4394 13.999 44.0651 11.5186C47.5463 8.26452 55.324 1.19323 60.4531 4.06135Z" fill="white"/>
</svg>
