<svg width="39" height="48" viewBox="0 0 39 48" fill="none" xmlns="http://www.w3.org/2000/svg">
<path d="M1.48953 44.232L0.0015371 4.60809C-0.0209186 3.97875 0.203398 3.36555 0.626645 2.89926C1.04989 2.43297 1.63857 2.1505 2.26713 2.11209L35.9631 0.00489597C36.2923 -0.0161125 36.6223 0.030639 36.9328 0.14226C37.2432 0.25388 37.5274 0.427997 37.7679 0.653843C38.0084 0.879689 38.2 1.15246 38.3308 1.4553C38.4617 1.75814 38.529 2.08459 38.5286 2.41449V45.588C38.5283 45.9139 38.462 46.2365 38.3337 46.5361C38.2054 46.8357 38.0177 47.1063 37.782 47.3314C37.5463 47.5566 37.2675 47.7317 36.9623 47.8462C36.6571 47.9607 36.3319 48.0122 36.0062 47.9976L3.79353 46.5504C3.18837 46.5231 2.61557 46.2694 2.18878 45.8395C1.76199 45.4096 1.5124 44.8373 1.48953 44.232Z" fill="#FF4785"/>
<path fill-rule="evenodd" clip-rule="evenodd" d="M33.3137 0.17041L28.6769 0.458409L28.4513 5.8992C28.4485 5.96727 28.4651 6.03473 28.4992 6.09374C28.5333 6.15275 28.5833 6.20089 28.6437 6.23256C28.704 6.26423 28.7721 6.27813 28.84 6.27265C28.9079 6.26717 28.9728 6.24253 29.0273 6.2016L31.1393 4.5984L32.9249 6.0048C32.9788 6.04747 33.0438 6.07381 33.1122 6.08071C33.1806 6.0876 33.2496 6.07477 33.3109 6.04372C33.3723 6.01267 33.4234 5.9647 33.4584 5.90549C33.4933 5.84628 33.5106 5.7783 33.5081 5.7096L33.3137 0.17041ZM29.7041 18.3864C28.8569 19.0464 22.5305 19.4952 22.5305 18.5568C22.6649 14.9736 21.0617 14.8176 20.1689 14.8176C19.3241 14.8176 17.8985 15.072 17.8985 16.992C17.8985 18.948 19.9817 20.052 22.4273 21.348C25.9001 23.1888 30.1073 25.4183 30.1073 31.0247C30.1073 36.4007 25.7393 39.3671 20.1713 39.3671C14.4233 39.3671 9.40015 37.0415 9.96655 28.9799C10.1898 28.0343 17.4977 28.2599 17.4977 28.9799C17.4065 32.3063 18.1649 33.2855 20.0801 33.2855C21.5513 33.2855 22.2185 32.4743 22.2185 31.1111C22.2185 29.0447 20.0489 27.8255 17.5505 26.4239C14.1689 24.5256 10.1898 22.2912 10.1898 17.1624C10.1898 12.0456 13.7081 8.63279 19.9913 8.63279C26.2745 8.63279 29.7041 11.9928 29.7041 18.3864Z" fill="white"/>
</svg>
