<svg width="58" height="72" viewBox="0 0 58 72" fill="none" xmlns="http://www.w3.org/2000/svg">
<path d="M2.2343 66.348L0.00230565 6.91213C-0.0313779 5.96813 0.305097 5.04833 0.939967 4.34889C1.57484 3.64946 2.45786 3.22575 3.4007 3.16814L53.9446 0.00734395C54.4384 -0.0241688 54.9335 0.0459584 55.3991 0.213389C55.8648 0.38082 56.2911 0.641995 56.6518 0.980764C57.0125 1.31953 57.2999 1.7287 57.4962 2.18295C57.6925 2.6372 57.7935 3.12689 57.793 3.62174V68.382C57.7925 68.8709 57.693 69.3547 57.5005 69.8041C57.308 70.2536 57.0265 70.6594 56.673 70.9971C56.3195 71.3349 55.9012 71.5975 55.4434 71.7692C54.9856 71.941 54.4978 72.0182 54.0094 71.9964L5.69029 69.8256C4.78255 69.7847 3.92335 69.404 3.28317 68.7592C2.64299 68.1143 2.26861 67.256 2.2343 66.348Z" fill="white"/>
<path fill-rule="evenodd" clip-rule="evenodd" d="M49.9705 0.255615L43.0154 0.687614L42.677 8.84879C42.6728 8.9509 42.6977 9.0521 42.7488 9.14061C42.7999 9.22913 42.875 9.30134 42.9655 9.34884C43.056 9.39635 43.1581 9.4172 43.26 9.40898C43.3618 9.40075 43.4593 9.36379 43.541 9.30239L46.709 6.8976L49.3873 9.00719C49.4682 9.0712 49.5657 9.11071 49.6683 9.12106C49.7709 9.1314 49.8743 9.11215 49.9664 9.06558C50.0584 9.019 50.1351 8.94705 50.1875 8.85824C50.24 8.76942 50.2658 8.66746 50.2621 8.56439L49.9705 0.255615ZM44.5562 27.5795C43.2854 28.5695 33.7958 29.2427 33.7958 27.8351C33.9974 22.4604 31.5926 22.2264 30.2534 22.2264C28.9862 22.2264 26.8478 22.608 26.8478 25.488C26.8478 28.4219 29.9726 30.0779 33.641 32.0219C38.8502 34.7831 45.161 38.1275 45.161 46.5371C45.161 54.6011 38.609 59.0507 30.257 59.0507C21.635 59.0507 14.1002 55.5623 14.9498 43.4699C15.2846 42.0515 26.2466 42.3899 26.2466 43.4699C26.1098 48.4595 27.2474 49.9283 30.1202 49.9283C32.327 49.9283 33.3278 48.7115 33.3278 46.6667C33.3278 43.5671 30.0734 41.7383 26.3258 39.6359C21.2534 36.7883 15.2846 33.4367 15.2846 25.7435C15.2846 18.0684 20.5622 12.9492 29.987 12.9492C39.4118 12.9492 44.5562 17.9892 44.5562 27.5795Z" fill="black"/>
</svg>
