<svg width="121" height="72" viewBox="0 0 121 72" fill="none" xmlns="http://www.w3.org/2000/svg">
<path d="M30.0833 24C34.0944 8 44.1222 0 60.1667 0C84.2333 0 87.2417 18 99.275 21C107.297 23 114.317 20 120.333 12C116.322 28 106.294 36 90.25 36C66.1833 36 63.175 18 51.1417 15C43.1194 13 36.1 16 30.0833 24ZM0 60C4.01111 44 14.0389 36 30.0833 36C54.15 36 57.1583 54 69.1917 57C77.2139 59 84.2333 56 90.25 48C86.2389 64 76.2111 72 60.1667 72C36.1 72 33.0917 54 21.0583 51C13.0361 49 6.01667 52 0 60Z" fill="white"/>
</svg>
