<svg width="81" height="48" viewBox="0 0 81 48" fill="none" xmlns="http://www.w3.org/2000/svg">
<path d="M20.0556 16C22.7296 5.33333 29.4148 0 40.1111 0C56.1556 0 58.1611 12 66.1833 14C71.5315 15.3333 76.2111 13.3333 80.2222 8C77.5481 18.6667 70.863 24 60.1667 24C44.1222 24 42.1167 12 34.0944 10C28.7463 8.66667 24.0667 10.6667 20.0556 16ZM0 40C2.67407 29.3333 9.35926 24 20.0556 24C36.1 24 38.1056 36 46.1278 38C51.4759 39.3333 56.1556 37.3333 60.1667 32C57.4926 42.6667 50.8074 48 40.1111 48C24.0667 48 22.0611 36 14.0389 34C8.69074 32.6667 4.01111 34.6667 0 40Z" fill="#44A8B3"/>
</svg>
