<svg width="72" height="72" viewBox="0 0 72 72" fill="none" xmlns="http://www.w3.org/2000/svg">
<path d="M64.9688 0H7.03125C3.148 0 0 3.148 0 7.03125V64.9688C0 68.852 3.148 72 7.03125 72H64.9688C68.852 72 72 68.852 72 64.9688V7.03125C72 3.148 68.852 0 64.9688 0Z" fill="white"/>
<path fill-rule="evenodd" clip-rule="evenodd" d="M44.5695 57.294V64.3338C45.714 64.9205 47.0675 65.3604 48.6301 65.6537C50.1927 65.9471 51.8396 66.0938 53.571 66.0938C55.2583 66.0938 56.8612 65.9325 58.3798 65.6097C59.8984 65.2871 61.23 64.7554 62.3744 64.0148C63.5188 63.2742 64.4248 62.3062 65.0924 61.1108C65.7599 59.9155 66.0938 58.438 66.0938 56.6781C66.0938 55.402 65.9031 54.2838 65.5215 53.3232C65.14 52.3626 64.5899 51.5083 63.8709 50.7603C63.152 50.0123 62.29 49.3412 61.2849 48.7472C60.2799 48.1532 59.1465 47.5923 57.8846 47.0644C56.9603 46.683 56.1313 46.3127 55.3977 45.9534C54.664 45.594 54.0405 45.2274 53.5269 44.8535C53.0134 44.4794 52.6172 44.0834 52.3385 43.6655C52.0598 43.2474 51.9203 42.7745 51.9203 42.2464C51.9203 41.7625 52.045 41.3262 52.2945 40.9375C52.544 40.5488 52.8961 40.2152 53.3509 39.9365C53.8058 39.6579 54.3632 39.4415 55.0235 39.2875C55.6838 39.1335 56.4173 39.0566 57.2244 39.0566C57.8112 39.0566 58.4311 39.1006 59.084 39.1885C59.7369 39.2766 60.3935 39.4123 61.0539 39.5955C61.7141 39.7789 62.3559 40.0099 62.9796 40.2885C63.6031 40.5672 64.179 40.8898 64.7072 41.2566V34.6787C63.6362 34.2681 62.466 33.9637 61.1969 33.7657C59.9278 33.5677 58.4715 33.4688 56.8283 33.4688C55.1555 33.4688 53.571 33.6485 52.0744 34.0078C50.5779 34.3671 49.2611 34.928 48.1238 35.6906C46.9867 36.4534 46.0882 37.425 45.4279 38.6056C44.7677 39.7862 44.4375 41.1978 44.4375 42.8404C44.4375 44.9377 45.0427 46.727 46.2532 48.2084C47.4636 49.6896 49.3013 50.9435 51.7663 51.9702C52.7347 52.3662 53.637 52.7548 54.4733 53.1361C55.3096 53.5175 56.0323 53.9135 56.6411 54.3241C57.25 54.7348 57.7305 55.1821 58.0828 55.6661C58.4349 56.15 58.611 56.7 58.611 57.3161C58.611 57.7707 58.5008 58.1923 58.2808 58.581C58.0607 58.9697 57.7268 59.3069 57.2794 59.5929C56.8319 59.879 56.2743 60.1026 55.6068 60.2639C54.9391 60.4253 54.1579 60.5059 53.2628 60.5059C51.7369 60.5059 50.2258 60.2383 48.7291 59.7029C47.2326 59.1677 45.846 58.3647 44.5695 57.294ZM32.7347 39.949H41.7656V34.1719H16.5938V39.949H25.5805V65.6719H32.7347V39.949Z" fill="black"/>
</svg>
